<svg width="1200" height="250" viewBox="0 0 1200 250" fill="none" xmlns="http://www.w3.org/2000/svg">
<rect width="1200" height="250" fill="#C4FBEA"/>
<path d="M238.815 75.7244V70.5682H239.949C240.233 70.25 240.48 69.9062 240.69 69.5369C240.9 69.1676 241.082 68.7472 241.235 68.2756C241.395 67.7983 241.528 67.2443 241.636 66.6136C241.744 65.9773 241.835 65.2358 241.909 64.3892L242.386 58.9091H250.133V70.5682H252.076V75.7244H250.559V72H240.341V75.7244H238.815ZM241.696 70.5682H248.616V60.3409H243.801L243.409 64.3892C243.272 65.7642 243.079 66.9631 242.829 67.9858C242.579 69.0085 242.201 69.8693 241.696 70.5682ZM253.681 72V70.5682H254.09C254.556 70.5682 254.931 70.483 255.215 70.3125C255.505 70.1364 255.729 69.8409 255.888 69.4261C256.047 69.0114 256.167 68.446 256.246 67.7301C256.326 67.0142 256.388 66.1165 256.434 65.0369L256.715 58.9091H265.033V72H263.507V60.3409H258.155L257.908 65.5483C257.857 66.6108 257.772 67.5455 257.652 68.3523C257.539 69.1591 257.351 69.8324 257.09 70.3722C256.834 70.9119 256.476 71.3182 256.016 71.5909C255.561 71.8636 254.965 72 254.226 72H253.681ZM276.929 72V60.3153H273.324C272.386 60.321 271.673 60.517 271.184 60.9034C270.701 61.2898 270.46 61.8665 270.46 62.6335C270.46 63.4006 270.69 63.9773 271.15 64.3636C271.61 64.7443 272.281 64.9347 273.162 64.9347H277.355V66.3665H273.162C272.258 66.3665 271.491 66.2216 270.86 65.9318C270.235 65.642 269.758 65.2187 269.429 64.6619C269.099 64.1051 268.934 63.429 268.934 62.6335C268.934 61.8324 269.102 61.1562 269.437 60.6051C269.778 60.0483 270.275 59.6278 270.929 59.3438C271.588 59.054 272.386 58.9091 273.324 58.9091H278.377V72H276.929ZM268.108 72L271.875 65.4886H273.537L269.77 72H268.108ZM289.18 72V58.9091H299.092V72H297.566V60.3409H290.706V72H289.18ZM308.196 72.2727C307.066 72.2727 306.066 71.9858 305.196 71.4119C304.333 70.8381 303.657 70.0455 303.168 69.0341C302.679 68.017 302.435 66.8437 302.435 65.5142C302.435 64.1733 302.679 62.9943 303.168 61.9773C303.657 60.9545 304.333 60.1591 305.196 59.5909C306.066 59.017 307.066 58.7301 308.196 58.7301C309.327 58.7301 310.324 59.017 311.188 59.5909C312.051 60.1648 312.728 60.9602 313.216 61.9773C313.711 62.9943 313.958 64.1733 313.958 65.5142C313.958 66.8437 313.713 68.017 313.225 69.0341C312.736 70.0455 312.057 70.8381 311.188 71.4119C310.324 71.9858 309.327 72.2727 308.196 72.2727ZM308.196 70.8835C309.105 70.8835 309.875 70.6392 310.506 70.1506C311.137 69.6619 311.614 69.0114 311.938 68.1989C312.267 67.3864 312.432 66.4915 312.432 65.5142C312.432 64.5369 312.267 63.6392 311.938 62.821C311.614 62.0028 311.137 61.3466 310.506 60.8523C309.875 60.358 309.105 60.1108 308.196 60.1108C307.293 60.1108 306.523 60.358 305.887 60.8523C305.256 61.3466 304.776 62.0028 304.446 62.821C304.123 63.6392 303.961 64.5369 303.961 65.5142C303.961 66.4915 304.123 67.3864 304.446 68.1989C304.776 69.0114 305.256 69.6619 305.887 70.1506C306.517 70.6392 307.287 70.8835 308.196 70.8835ZM322.402 72.2727C321.231 72.2727 320.211 71.9801 319.342 71.3949C318.478 70.8097 317.808 70.0085 317.331 68.9915C316.853 67.9744 316.615 66.8153 316.615 65.5142C316.615 64.2017 316.856 63.0341 317.339 62.0114C317.828 60.9886 318.504 60.1875 319.368 59.608C320.231 59.0227 321.234 58.7301 322.376 58.7301C323.251 58.7301 324.044 58.9006 324.754 59.2415C325.464 59.5767 326.049 60.0511 326.51 60.6648C326.975 61.2727 327.268 61.983 327.387 62.7955H325.853C325.694 62.0568 325.311 61.4261 324.703 60.9034C324.1 60.375 323.333 60.1108 322.402 60.1108C321.566 60.1108 320.828 60.3381 320.186 60.7926C319.544 61.2415 319.041 61.8693 318.677 62.6761C318.319 63.4773 318.14 64.4062 318.14 65.4631C318.14 66.5256 318.316 67.4659 318.669 68.2841C319.021 69.0966 319.515 69.733 320.152 70.1932C320.794 70.6534 321.544 70.8835 322.402 70.8835C322.981 70.8835 323.51 70.7756 323.987 70.5597C324.47 70.3381 324.873 70.0256 325.197 69.6222C325.527 69.2187 325.748 68.7386 325.862 68.1818H327.396C327.282 68.9716 327.001 69.6761 326.552 70.2955C326.109 70.9091 325.532 71.392 324.822 71.7443C324.118 72.0966 323.311 72.2727 322.402 72.2727ZM329.565 60.3409V58.9091H339.792V60.3409H335.463V72H333.946V60.3409H329.565ZM344.056 76.9091C343.755 76.9091 343.473 76.8807 343.212 76.8239C342.951 76.767 342.743 76.7045 342.59 76.6364L342.999 75.2983C343.516 75.4574 343.976 75.5142 344.38 75.4688C344.783 75.429 345.141 75.2472 345.453 74.9233C345.766 74.6051 346.044 74.1165 346.289 73.4574L346.766 72.1278L341.951 58.9091H343.596L347.482 69.9972H347.601L351.488 58.9091H353.132L347.593 74.071C347.36 74.7017 347.073 75.2273 346.732 75.6477C346.391 76.0739 345.996 76.3892 345.547 76.5938C345.104 76.804 344.607 76.9091 344.056 76.9091ZM356.118 72V58.9091H366.029V72H364.504V60.3409H357.643V72H356.118ZM368.759 72V70.5682H369.168C369.634 70.5682 370.009 70.483 370.293 70.3125C370.583 70.1364 370.807 69.8409 370.966 69.4261C371.125 69.0114 371.245 68.446 371.324 67.7301C371.404 67.0142 371.466 66.1165 371.512 65.0369L371.793 58.9091H380.111V72H378.586V60.3409H373.233L372.986 65.5483C372.935 66.6108 372.85 67.5455 372.73 68.3523C372.617 69.1591 372.429 69.8324 372.168 70.3722C371.912 70.9119 371.554 71.3182 371.094 71.5909C370.64 71.8636 370.043 72 369.304 72H368.759ZM389.424 72.2727C388.203 72.2727 387.146 71.9886 386.254 71.4205C385.362 70.8466 384.672 70.054 384.183 69.0426C383.7 68.0256 383.458 66.8551 383.458 65.5312C383.458 64.2131 383.7 63.0426 384.183 62.0199C384.672 60.9915 385.345 60.1875 386.203 59.608C387.066 59.0227 388.064 58.7301 389.194 58.7301C389.904 58.7301 390.589 58.8608 391.248 59.1222C391.907 59.3778 392.498 59.7727 393.021 60.3068C393.549 60.8352 393.967 61.5028 394.274 62.3097C394.581 63.1108 394.734 64.0597 394.734 65.1562V65.9062H384.507V64.5682H393.183C393.183 63.7273 393.012 62.9716 392.672 62.3011C392.336 61.625 391.868 61.0909 391.265 60.6989C390.669 60.3068 389.978 60.1108 389.194 60.1108C388.365 60.1108 387.635 60.3324 387.004 60.7756C386.373 61.2187 385.879 61.804 385.521 62.5312C385.169 63.2585 384.99 64.054 384.984 64.9176V65.7188C384.984 66.7585 385.163 67.6676 385.521 68.446C385.885 69.2187 386.399 69.8182 387.064 70.2443C387.728 70.6705 388.515 70.8835 389.424 70.8835C390.044 70.8835 390.586 70.7869 391.052 70.5938C391.524 70.4006 391.919 70.142 392.237 69.8182C392.561 69.4886 392.805 69.1278 392.97 68.7358L394.41 69.2045C394.211 69.7557 393.885 70.2642 393.43 70.7301C392.981 71.196 392.419 71.571 391.743 71.8551C391.072 72.1335 390.299 72.2727 389.424 72.2727ZM406.915 64.7472V66.179H399.219V64.7472H406.915ZM399.594 58.9091V72H398.077V58.9091H399.594ZM408.032 58.9091V72H406.515V58.9091H408.032ZM413.586 69.8438L420.498 58.9091H422.314V72H420.797V61.0653L413.91 72H412.069V58.9091H413.586V69.8438ZM434.194 72V60.3153H430.589C429.652 60.321 428.939 60.517 428.45 60.9034C427.967 61.2898 427.725 61.8665 427.725 62.6335C427.725 63.4006 427.956 63.9773 428.416 64.3636C428.876 64.7443 429.547 64.9347 430.427 64.9347H434.62V66.3665H430.427C429.524 66.3665 428.757 66.2216 428.126 65.9318C427.501 65.642 427.024 65.2187 426.694 64.6619C426.365 64.1051 426.2 63.429 426.2 62.6335C426.2 61.8324 426.368 61.1562 426.703 60.6051C427.044 60.0483 427.541 59.6278 428.194 59.3438C428.853 59.054 429.652 58.9091 430.589 58.9091H435.643V72H434.194ZM425.373 72L429.14 65.4886H430.802L427.035 72H425.373ZM446.429 72V58.9091H451.585C452.977 58.9091 454.074 59.2102 454.875 59.8125C455.681 60.4148 456.085 61.2273 456.085 62.25C456.085 63.0284 455.86 63.6506 455.412 64.1165C454.963 64.5824 454.36 64.9119 453.605 65.1051C454.11 65.1903 454.579 65.375 455.011 65.6591C455.449 65.9432 455.804 66.3182 456.076 66.7841C456.349 67.25 456.485 67.8068 456.485 68.4545C456.485 69.1364 456.315 69.7443 455.974 70.2784C455.633 70.8125 455.153 71.233 454.534 71.5398C453.914 71.8466 453.181 72 452.335 72H446.429ZM447.877 70.5938H452.335C453.136 70.5938 453.77 70.3892 454.235 69.9801C454.701 69.5653 454.934 69.0142 454.934 68.3267C454.934 67.5937 454.713 67.0085 454.27 66.571C453.832 66.1278 453.244 65.9062 452.505 65.9062H447.877V70.5938ZM447.877 64.5597H451.679C452.27 64.5597 452.781 64.4687 453.213 64.2869C453.645 64.1051 453.977 63.8494 454.21 63.5199C454.449 63.1847 454.565 62.7926 454.559 62.3438C454.559 61.7017 454.298 61.2045 453.775 60.8523C453.252 60.4943 452.522 60.3153 451.585 60.3153H447.877V64.5597ZM475.4 64.7472V66.179H467.703V64.7472H475.4ZM468.078 58.9091V72H466.561V58.9091H468.078ZM476.516 58.9091V72H474.999V58.9091H476.516ZM484.21 72.2983C483.42 72.2983 482.699 72.1449 482.045 71.8381C481.392 71.5256 480.872 71.0767 480.485 70.4915C480.099 69.9006 479.906 69.1847 479.906 68.3438C479.906 67.696 480.028 67.1506 480.272 66.7074C480.517 66.2642 480.863 65.9006 481.312 65.6165C481.761 65.3324 482.292 65.108 482.906 64.9432C483.52 64.7784 484.196 64.6506 484.934 64.5597C485.667 64.4687 486.287 64.3892 486.792 64.321C487.304 64.2528 487.693 64.1449 487.96 63.9972C488.227 63.8494 488.36 63.6108 488.36 63.2812V62.9744C488.36 62.0824 488.093 61.3807 487.559 60.8693C487.031 60.3523 486.27 60.0938 485.275 60.0938C484.332 60.0938 483.562 60.3011 482.966 60.7159C482.375 61.1307 481.96 61.6193 481.721 62.1818L480.281 61.6619C480.576 60.946 480.985 60.375 481.508 59.9489C482.031 59.517 482.616 59.2074 483.264 59.0199C483.912 58.8267 484.568 58.7301 485.233 58.7301C485.733 58.7301 486.252 58.7955 486.792 58.9261C487.338 59.0568 487.843 59.2841 488.309 59.608C488.775 59.9261 489.153 60.3722 489.443 60.946C489.733 61.5142 489.877 62.2358 489.877 63.1108V72H488.36V69.929H488.267C488.085 70.3153 487.815 70.6903 487.457 71.054C487.099 71.4176 486.65 71.7159 486.11 71.9489C485.571 72.1818 484.937 72.2983 484.21 72.2983ZM484.414 70.9091C485.221 70.9091 485.92 70.7301 486.511 70.3722C487.102 70.0142 487.556 69.5398 487.875 68.9489C488.199 68.3523 488.36 67.696 488.36 66.9801V65.0881C488.247 65.196 488.056 65.2926 487.789 65.3778C487.528 65.4631 487.224 65.5398 486.877 65.608C486.537 65.6705 486.196 65.7244 485.855 65.7699C485.514 65.8153 485.207 65.8551 484.934 65.8892C484.196 65.9801 483.565 66.1222 483.042 66.3153C482.52 66.5085 482.119 66.7756 481.841 67.1165C481.562 67.4517 481.423 67.8835 481.423 68.4119C481.423 69.2074 481.707 69.8239 482.275 70.2614C482.843 70.6932 483.556 70.9091 484.414 70.9091ZM493.913 58.9091H495.43V70.5682H500.799V58.9091H502.316V70.5682H507.686V58.9091H509.203V72H493.913V58.9091ZM519.975 72V58.9091H521.493V64.7983H522.916L527.782 58.9091H529.743L524.493 65.2074L529.862 72H527.902L523.385 66.2301H521.493V72H519.975ZM536.9 72.2727C535.769 72.2727 534.769 71.9858 533.9 71.4119C533.036 70.8381 532.36 70.0455 531.871 69.0341C531.382 68.017 531.138 66.8437 531.138 65.5142C531.138 64.1733 531.382 62.9943 531.871 61.9773C532.36 60.9545 533.036 60.1591 533.9 59.5909C534.769 59.017 535.769 58.7301 536.9 58.7301C538.03 58.7301 539.027 59.017 539.891 59.5909C540.755 60.1648 541.431 60.9602 541.919 61.9773C542.414 62.9943 542.661 64.1733 542.661 65.5142C542.661 66.8437 542.417 68.017 541.928 69.0341C541.439 70.0455 540.76 70.8381 539.891 71.4119C539.027 71.9858 538.03 72.2727 536.9 72.2727ZM536.9 70.8835C537.809 70.8835 538.578 70.6392 539.209 70.1506C539.84 69.6619 540.317 69.0114 540.641 68.1989C540.971 67.3864 541.135 66.4915 541.135 65.5142C541.135 64.5369 540.971 63.6392 540.641 62.821C540.317 62.0028 539.84 61.3466 539.209 60.8523C538.578 60.358 537.809 60.1108 536.9 60.1108C535.996 60.1108 535.226 60.358 534.59 60.8523C533.959 61.3466 533.479 62.0028 533.15 62.821C532.826 63.6392 532.664 64.5369 532.664 65.5142C532.664 66.4915 532.826 67.3864 533.15 68.1989C533.479 69.0114 533.959 69.6619 534.59 70.1506C535.221 70.6392 535.99 70.8835 536.9 70.8835ZM544.704 72V70.5682H545.113C545.579 70.5682 545.954 70.483 546.238 70.3125C546.528 70.1364 546.752 69.8409 546.912 69.4261C547.071 69.0114 547.19 68.446 547.27 67.7301C547.349 67.0142 547.412 66.1165 547.457 65.0369L547.738 58.9091H556.056V72H554.531V60.3409H549.179L548.931 65.5483C548.88 66.6108 548.795 67.5455 548.676 68.3523C548.562 69.1591 548.375 69.8324 548.113 70.3722C547.858 70.9119 547.5 71.3182 547.039 71.5909C546.585 71.8636 545.988 72 545.25 72H544.704ZM558.79 72V70.5682H559.199C559.665 70.5682 560.04 70.483 560.324 70.3125C560.614 70.1364 560.838 69.8409 560.998 69.4261C561.157 69.0114 561.276 68.446 561.355 67.7301C561.435 67.0142 561.498 66.1165 561.543 65.0369L561.824 58.9091H570.142V72H568.617V60.3409H563.265L563.017 65.5483C562.966 66.6108 562.881 67.5455 562.762 68.3523C562.648 69.1591 562.461 69.8324 562.199 70.3722C561.944 70.9119 561.586 71.3182 561.125 71.5909C560.671 71.8636 560.074 72 559.336 72H558.79ZM579.456 72.2727C578.234 72.2727 577.177 71.9886 576.285 71.4205C575.393 70.8466 574.703 70.054 574.214 69.0426C573.731 68.0256 573.49 66.8551 573.49 65.5312C573.49 64.2131 573.731 63.0426 574.214 62.0199C574.703 60.9915 575.376 60.1875 576.234 59.608C577.098 59.0227 578.095 58.7301 579.225 58.7301C579.936 58.7301 580.62 58.8608 581.279 59.1222C581.939 59.3778 582.529 59.7727 583.052 60.3068C583.581 60.8352 583.998 61.5028 584.305 62.3097C584.612 63.1108 584.765 64.0597 584.765 65.1562V65.9062H574.538V64.5682H583.214C583.214 63.7273 583.044 62.9716 582.703 62.3011C582.368 61.625 581.899 61.0909 581.297 60.6989C580.7 60.3068 580.01 60.1108 579.225 60.1108C578.396 60.1108 577.666 60.3324 577.035 60.7756C576.404 61.2187 575.91 61.804 575.552 62.5312C575.2 63.2585 575.021 64.054 575.015 64.9176V65.7188C575.015 66.7585 575.194 67.6676 575.552 68.446C575.916 69.2187 576.43 69.8182 577.095 70.2443C577.76 70.6705 578.547 70.8835 579.456 70.8835C580.075 70.8835 580.618 70.7869 581.083 70.5938C581.555 70.4006 581.95 70.142 582.268 69.8182C582.592 69.4886 582.836 69.1278 583.001 68.7358L584.441 69.2045C584.243 69.7557 583.916 70.2642 583.461 70.7301C583.012 71.196 582.45 71.571 581.774 71.8551C581.103 72.1335 580.331 72.2727 579.456 72.2727ZM586.557 75.7244V70.5682H587.691C587.975 70.25 588.222 69.9062 588.432 69.5369C588.642 69.1676 588.824 68.7472 588.978 68.2756C589.137 67.7983 589.27 67.2443 589.378 66.6136C589.486 65.9773 589.577 65.2358 589.651 64.3892L590.128 58.9091H597.875V70.5682H599.819V75.7244H598.301V72H588.083V75.7244H586.557ZM589.438 70.5682H596.358V60.3409H591.543L591.151 64.3892C591.015 65.7642 590.821 66.9631 590.571 67.9858C590.321 69.0085 589.944 69.8693 589.438 70.5682ZM601.892 72L607.67 65.3864L601.968 58.9091H603.818L608.838 64.7301H609.716V58.9091H611.241V64.7301H612.102L617.122 58.9091H618.971L613.287 65.3864L619.048 72H617.173L612.076 66.1619H611.241V72H609.716V66.1619H608.88L603.767 72H601.892ZM624.756 69.6136L624.603 70.5256C624.506 71.1392 624.37 71.8153 624.194 72.554C624.017 73.2926 623.836 73.9943 623.648 74.6591C623.461 75.3239 623.299 75.858 623.162 76.2614H621.995C622.069 75.875 622.162 75.3835 622.276 74.7869C622.395 74.1903 622.517 73.5284 622.642 72.8011C622.767 72.0795 622.881 71.3352 622.983 70.5682L623.103 69.6136H624.756ZM635.522 72V58.9091H640.679C642.071 58.9091 643.167 59.2102 643.968 59.8125C644.775 60.4148 645.179 61.2273 645.179 62.25C645.179 63.0284 644.954 63.6506 644.505 64.1165C644.056 64.5824 643.454 64.9119 642.699 65.1051C643.204 65.1903 643.673 65.375 644.105 65.6591C644.542 65.9432 644.897 66.3182 645.17 66.7841C645.443 67.25 645.579 67.8068 645.579 68.4545C645.579 69.1364 645.409 69.7443 645.068 70.2784C644.727 70.8125 644.247 71.233 643.627 71.5398C643.008 71.8466 642.275 72 641.429 72H635.522ZM636.971 70.5938H641.429C642.23 70.5938 642.863 70.3892 643.329 69.9801C643.795 69.5653 644.028 69.0142 644.028 68.3267C644.028 67.5937 643.806 67.0085 643.363 66.571C642.926 66.1278 642.338 65.9062 641.599 65.9062H636.971V70.5938ZM636.971 64.5597H640.772C641.363 64.5597 641.875 64.4687 642.306 64.2869C642.738 64.1051 643.071 63.8494 643.304 63.5199C643.542 63.1847 643.659 62.7926 643.653 62.3438C643.653 61.7017 643.392 61.2045 642.869 60.8523C642.346 60.4943 641.616 60.3153 640.679 60.3153H636.971V64.5597ZM650.184 63.9631H654.019C655.49 63.9631 656.627 64.321 657.428 65.0369C658.229 65.7528 658.63 66.7216 658.63 67.9432C658.63 68.7557 658.448 69.4659 658.084 70.0739C657.726 70.6818 657.203 71.1562 656.516 71.4972C655.828 71.8324 654.996 72 654.019 72H648.922V58.9091H650.448V70.5682H654.019C654.945 70.5682 655.689 70.3466 656.252 69.9034C656.82 69.4602 657.104 68.8295 657.104 68.0114C657.104 67.1761 656.82 66.5312 656.252 66.0767C655.689 65.6222 654.945 65.3949 654.019 65.3949H650.184V63.9631ZM660.837 72V58.9091H662.354V72H660.837ZM671.588 75.7244V70.5682H672.722C673.006 70.25 673.253 69.9062 673.463 69.5369C673.674 69.1676 673.855 68.7472 674.009 68.2756C674.168 67.7983 674.301 67.2443 674.409 66.6136C674.517 65.9773 674.608 65.2358 674.682 64.3892L675.159 58.9091H682.907V70.5682H684.85V75.7244H683.333V72H673.114V75.7244H671.588ZM674.469 70.5682H681.39V60.3409H676.574L676.182 64.3892C676.046 65.7642 675.853 66.9631 675.603 67.9858C675.353 69.0085 674.975 69.8693 674.469 70.5682ZM692.829 72.2727C691.699 72.2727 690.699 71.9858 689.829 71.4119C688.966 70.8381 688.289 70.0455 687.801 69.0341C687.312 68.017 687.068 66.8437 687.068 65.5142C687.068 64.1733 687.312 62.9943 687.801 61.9773C688.289 60.9545 688.966 60.1591 689.829 59.5909C690.699 59.017 691.699 58.7301 692.829 58.7301C693.96 58.7301 694.957 59.017 695.821 59.5909C696.684 60.1648 697.36 60.9602 697.849 61.9773C698.343 62.9943 698.591 64.1733 698.591 65.5142C698.591 66.8437 698.346 68.017 697.858 69.0341C697.369 70.0455 696.69 70.8381 695.821 71.4119C694.957 71.9858 693.96 72.2727 692.829 72.2727ZM692.829 70.8835C693.738 70.8835 694.508 70.6392 695.139 70.1506C695.77 69.6619 696.247 69.0114 696.571 68.1989C696.9 67.3864 697.065 66.4915 697.065 65.5142C697.065 64.5369 696.9 63.6392 696.571 62.821C696.247 62.0028 695.77 61.3466 695.139 60.8523C694.508 60.358 693.738 60.1108 692.829 60.1108C691.926 60.1108 691.156 60.358 690.52 60.8523C689.889 61.3466 689.409 62.0028 689.079 62.821C688.755 63.6392 688.593 64.5369 688.593 65.5142C688.593 66.4915 688.755 67.3864 689.079 68.1989C689.409 69.0114 689.889 69.6619 690.52 70.1506C691.15 70.6392 691.92 70.8835 692.829 70.8835ZM700.634 72V70.5682H701.043C701.509 70.5682 701.884 70.483 702.168 70.3125C702.458 70.1364 702.682 69.8409 702.841 69.4261C703 69.0114 703.12 68.446 703.199 67.7301C703.279 67.0142 703.341 66.1165 703.387 65.0369L703.668 58.9091H711.986V72H710.461V60.3409H705.108L704.861 65.5483C704.81 66.6108 704.725 67.5455 704.605 68.3523C704.492 69.1591 704.304 69.8324 704.043 70.3722C703.787 70.9119 703.429 71.3182 702.969 71.5909C702.515 71.8636 701.918 72 701.179 72H700.634ZM715.189 72L720.967 65.3864L715.265 58.9091H717.115L722.135 64.7301H723.012V58.9091H724.538V64.7301H725.399L730.419 58.9091H732.268L726.583 65.3864L732.345 72H730.47L725.373 66.1619H724.538V72H723.012V66.1619H722.177L717.064 72H715.189ZM744.368 64.7472V66.179H736.672V64.7472H744.368ZM737.047 58.9091V72H735.53V58.9091H737.047ZM745.485 58.9091V72H743.968V58.9091H745.485ZM750.801 63.9631H754.636C756.108 63.9631 757.244 64.321 758.045 65.0369C758.846 65.7528 759.247 66.7216 759.247 67.9432C759.247 68.7557 759.065 69.4659 758.701 70.0739C758.343 70.6818 757.821 71.1562 757.133 71.4972C756.446 71.8324 755.613 72 754.636 72H749.539V58.9091H751.065V70.5682H754.636C755.562 70.5682 756.306 70.3466 756.869 69.9034C757.437 69.4602 757.721 68.8295 757.721 68.0114C757.721 67.1761 757.437 66.5312 756.869 66.0767C756.306 65.6222 755.562 65.3949 754.636 65.3949H750.801V63.9631ZM761.454 72V58.9091H762.971V72H761.454ZM773.774 72V58.9091H783.686V72H782.16V60.3409H775.299V72H773.774ZM787.702 76.9091V58.9091H789.176V61.4062H789.355C789.537 61.0142 789.787 60.6136 790.105 60.2045C790.424 59.7898 790.844 59.4403 791.367 59.1562C791.895 58.8722 792.56 58.7301 793.361 58.7301C794.441 58.7301 795.384 59.0142 796.191 59.5824C797.003 60.1449 797.634 60.9347 798.083 61.9517C798.537 62.9631 798.765 64.142 798.765 65.4886C798.765 66.8409 798.537 68.0256 798.083 69.0426C797.634 70.0597 797.003 70.8523 796.191 71.4205C795.384 71.9886 794.446 72.2727 793.378 72.2727C792.588 72.2727 791.926 72.1307 791.392 71.8466C790.864 71.5625 790.435 71.2131 790.105 70.7983C789.782 70.3778 789.532 69.9687 789.355 69.571H789.219V76.9091H787.702ZM789.202 65.4631C789.202 66.5199 789.358 67.4574 789.671 68.2756C789.989 69.0881 790.444 69.7273 791.034 70.1932C791.631 70.6534 792.353 70.8835 793.199 70.8835C794.069 70.8835 794.801 70.6449 795.398 70.1676C796 69.6847 796.458 69.0341 796.77 68.2159C797.088 67.3977 797.248 66.4801 797.248 65.4631C797.248 64.4574 797.091 63.5511 796.779 62.7443C796.472 61.9375 796.017 61.2983 795.415 60.8267C794.813 60.3494 794.074 60.1108 793.199 60.1108C792.347 60.1108 791.623 60.3409 791.026 60.8011C790.429 61.2557 789.975 61.8864 789.662 62.6932C789.355 63.4943 789.202 64.4176 789.202 65.4631ZM803.61 69.8438L810.522 58.9091H812.337V72H810.82V61.0653L803.934 72H802.093V58.9091H803.61V69.8438ZM828.206 72.2727C827.036 72.2727 826.016 71.9801 825.147 71.3949C824.283 70.8097 823.613 70.0085 823.135 68.9915C822.658 67.9744 822.419 66.8153 822.419 65.5142C822.419 64.2017 822.661 63.0341 823.144 62.0114C823.632 60.9886 824.309 60.1875 825.172 59.608C826.036 59.0227 827.039 58.7301 828.181 58.7301C829.056 58.7301 829.848 58.9006 830.559 59.2415C831.269 59.5767 831.854 60.0511 832.314 60.6648C832.78 61.2727 833.073 61.983 833.192 62.7955H831.658C831.499 62.0568 831.115 61.4261 830.507 60.9034C829.905 60.375 829.138 60.1108 828.206 60.1108C827.371 60.1108 826.632 60.3381 825.99 60.7926C825.348 61.2415 824.846 61.8693 824.482 62.6761C824.124 63.4773 823.945 64.4062 823.945 65.4631C823.945 66.5256 824.121 67.4659 824.473 68.2841C824.826 69.0966 825.32 69.733 825.956 70.1932C826.598 70.6534 827.348 70.8835 828.206 70.8835C828.786 70.8835 829.314 70.7756 829.792 70.5597C830.275 70.3381 830.678 70.0256 831.002 69.6222C831.331 69.2187 831.553 68.7386 831.667 68.1818H833.201C833.087 68.9716 832.806 69.6761 832.357 70.2955C831.914 70.9091 831.337 71.392 830.627 71.7443C829.922 72.0966 829.115 72.2727 828.206 72.2727ZM841.745 72.2727C840.523 72.2727 839.466 71.9886 838.574 71.4205C837.682 70.8466 836.992 70.054 836.503 69.0426C836.02 68.0256 835.779 66.8551 835.779 65.5312C835.779 64.2131 836.02 63.0426 836.503 62.0199C836.992 60.9915 837.665 60.1875 838.523 59.608C839.387 59.0227 840.384 58.7301 841.515 58.7301C842.225 58.7301 842.909 58.8608 843.569 59.1222C844.228 59.3778 844.819 59.7727 845.341 60.3068C845.87 60.8352 846.287 61.5028 846.594 62.3097C846.901 63.1108 847.054 64.0597 847.054 65.1562V65.9062H836.827V64.5682H845.503C845.503 63.7273 845.333 62.9716 844.992 62.3011C844.657 61.625 844.188 61.0909 843.586 60.6989C842.989 60.3068 842.299 60.1108 841.515 60.1108C840.685 60.1108 839.955 60.3324 839.324 60.7756C838.694 61.2187 838.199 61.804 837.841 62.5312C837.489 63.2585 837.31 64.054 837.304 64.9176V65.7188C837.304 66.7585 837.483 67.6676 837.841 68.446C838.205 69.2187 838.719 69.8182 839.384 70.2443C840.049 70.6705 840.836 70.8835 841.745 70.8835C842.364 70.8835 842.907 70.7869 843.373 70.5938C843.844 70.4006 844.239 70.142 844.557 69.8182C844.881 69.4886 845.125 69.1278 845.29 68.7358L846.73 69.2045C846.532 69.7557 846.205 70.2642 845.75 70.7301C845.301 71.196 844.739 71.571 844.063 71.8551C843.392 72.1335 842.62 72.2727 841.745 72.2727ZM859.824 54L860.616 54.9631C860.258 55.3097 859.829 55.5483 859.329 55.679C858.835 55.804 858.281 55.875 857.667 55.892C857.059 55.9091 856.403 55.9347 855.699 55.9688C854.687 56.0199 853.855 56.2841 853.201 56.7614C852.548 57.233 852.051 57.9148 851.71 58.8068C851.375 59.6932 851.164 60.7756 851.079 62.054H851.25C851.687 61.1619 852.304 60.483 853.099 60.017C853.9 59.5511 854.781 59.3182 855.741 59.3182C856.747 59.3182 857.65 59.5653 858.451 60.0597C859.258 60.5483 859.895 61.267 860.36 62.2159C860.832 63.1591 861.068 64.3097 861.068 65.6676C861.068 67.0085 860.832 68.1761 860.36 69.1705C859.889 70.1591 859.23 70.9233 858.383 71.4631C857.537 72.0028 856.545 72.2727 855.409 72.2727C854.267 72.2727 853.267 72.0057 852.409 71.4716C851.556 70.9318 850.895 70.1392 850.423 69.0938C849.957 68.0426 849.724 66.75 849.724 65.2159V63.8438C849.724 60.7926 850.207 58.4972 851.173 56.9574C852.139 55.4176 853.625 54.6136 855.63 54.5455C856.278 54.5227 856.866 54.517 857.395 54.5284C857.923 54.5341 858.389 54.5085 858.792 54.4517C859.196 54.3892 859.539 54.2386 859.824 54ZM855.409 70.8835C856.255 70.8835 856.988 70.6705 857.608 70.2443C858.227 69.8125 858.704 69.2045 859.039 68.4205C859.38 67.6364 859.551 66.7187 859.551 65.6676C859.551 64.6222 859.377 63.7301 859.031 62.9915C858.69 62.2528 858.213 61.6875 857.599 61.2955C856.985 60.9034 856.267 60.7074 855.443 60.7074C854.795 60.7074 854.213 60.8324 853.696 61.0824C853.184 61.3267 852.747 61.6761 852.383 62.1307C852.02 62.5852 851.741 63.1193 851.548 63.733C851.355 64.3466 851.255 65.0199 851.25 65.7528C851.25 67.3381 851.619 68.5909 852.358 69.5114C853.102 70.4261 854.119 70.8835 855.409 70.8835ZM869.682 72.2727C868.461 72.2727 867.404 71.9886 866.512 71.4205C865.62 70.8466 864.929 70.054 864.441 69.0426C863.958 68.0256 863.716 66.8551 863.716 65.5312C863.716 64.2131 863.958 63.0426 864.441 62.0199C864.929 60.9915 865.603 60.1875 866.461 59.608C867.324 59.0227 868.321 58.7301 869.452 58.7301C870.162 58.7301 870.847 58.8608 871.506 59.1222C872.165 59.3778 872.756 59.7727 873.279 60.3068C873.807 60.8352 874.225 61.5028 874.532 62.3097C874.838 63.1108 874.992 64.0597 874.992 65.1562V65.9062H864.765V64.5682H873.441C873.441 63.7273 873.27 62.9716 872.929 62.3011C872.594 61.625 872.125 61.0909 871.523 60.6989C870.926 60.3068 870.236 60.1108 869.452 60.1108C868.623 60.1108 867.892 60.3324 867.262 60.7756C866.631 61.2187 866.137 61.804 865.779 62.5312C865.426 63.2585 865.248 64.054 865.242 64.9176V65.7188C865.242 66.7585 865.421 67.6676 865.779 68.446C866.142 69.2187 866.657 69.8182 867.321 70.2443C867.986 70.6705 868.773 70.8835 869.682 70.8835C870.301 70.8835 870.844 70.7869 871.31 70.5938C871.782 70.4006 872.176 70.142 872.495 69.8182C872.819 69.4886 873.063 69.1278 873.228 68.7358L874.668 69.2045C874.469 69.7557 874.142 70.2642 873.688 70.7301C873.239 71.196 872.676 71.571 872 71.8551C871.33 72.1335 870.557 72.2727 869.682 72.2727ZM886.602 69.8438L893.514 58.9091H895.329V72H893.812V61.0653L886.926 72H885.085V58.9091H886.602V69.8438ZM906.179 69.8778L911.096 58.9091H912.571L906.784 72H905.574L899.855 58.9091H901.304L906.179 69.8778ZM900.852 58.9091V72H899.335V58.9091H900.852ZM911.505 72V58.9091H913.022V72H911.505ZM922.346 72.2727C921.125 72.2727 920.068 71.9886 919.176 71.4205C918.284 70.8466 917.593 70.054 917.105 69.0426C916.622 68.0256 916.38 66.8551 916.38 65.5312C916.38 64.2131 916.622 63.0426 917.105 62.0199C917.593 60.9915 918.267 60.1875 919.125 59.608C919.988 59.0227 920.985 58.7301 922.116 58.7301C922.826 58.7301 923.511 58.8608 924.17 59.1222C924.829 59.3778 925.42 59.7727 925.943 60.3068C926.471 60.8352 926.889 61.5028 927.196 62.3097C927.502 63.1108 927.656 64.0597 927.656 65.1562V65.9062H917.429V64.5682H926.105C926.105 63.7273 925.934 62.9716 925.593 62.3011C925.258 61.625 924.789 61.0909 924.187 60.6989C923.591 60.3068 922.9 60.1108 922.116 60.1108C921.287 60.1108 920.556 60.3324 919.926 60.7756C919.295 61.2187 918.801 61.804 918.443 62.5312C918.091 63.2585 917.912 64.054 917.906 64.9176V65.7188C917.906 66.7585 918.085 67.6676 918.443 68.446C918.806 69.2187 919.321 69.8182 919.985 70.2443C920.65 70.6705 921.437 70.8835 922.346 70.8835C922.966 70.8835 923.508 70.7869 923.974 70.5938C924.446 70.4006 924.841 70.142 925.159 69.8182C925.483 69.4886 925.727 69.1278 925.892 68.7358L927.332 69.2045C927.133 69.7557 926.806 70.2642 926.352 70.7301C925.903 71.196 925.341 71.571 924.664 71.8551C923.994 72.1335 923.221 72.2727 922.346 72.2727ZM929.729 60.3409V58.9091H939.956V60.3409H935.627V72H934.11V60.3409H929.729ZM944.424 63.9631H948.251C949.723 63.9631 950.859 64.321 951.66 65.0369C952.461 65.7528 952.862 66.7216 952.862 67.9432C952.862 68.7557 952.683 69.4659 952.325 70.0739C951.967 70.6818 951.444 71.1562 950.757 71.4972C950.069 71.8324 949.234 72 948.251 72H943.163V58.9091H944.68V70.5682H948.251C949.177 70.5682 949.924 70.3466 950.493 69.9034C951.061 69.4602 951.345 68.8295 951.345 68.0114C951.345 67.1761 951.061 66.5312 950.493 66.0767C949.924 65.6222 949.177 65.3949 948.251 65.3949H944.424V63.9631ZM957.404 71.6676C957.069 71.6676 956.779 71.5483 956.535 71.3097C956.297 71.071 956.177 70.7812 956.177 70.4403C956.177 70.1051 956.297 69.8182 956.535 69.5795C956.779 69.3352 957.069 69.2131 957.404 69.2131C957.745 69.2131 958.035 69.3352 958.274 69.5795C958.512 69.8182 958.632 70.1051 958.632 70.4403C958.632 70.6676 958.575 70.875 958.461 71.0625C958.353 71.2443 958.206 71.392 958.018 71.5057C957.836 71.6136 957.632 71.6676 957.404 71.6676ZM957.404 62.2244C957.069 62.2244 956.779 62.1051 956.535 61.8665C956.297 61.6278 956.177 61.3381 956.177 60.9972C956.177 60.6619 956.297 60.375 956.535 60.1364C956.779 59.892 957.069 59.7699 957.404 59.7699C957.745 59.7699 958.035 59.892 958.274 60.1364C958.512 60.375 958.632 60.6619 958.632 60.9972C958.632 61.2244 958.575 61.4318 958.461 61.6193C958.353 61.8011 958.206 61.9489 958.018 62.0625C957.836 62.1705 957.632 62.2244 957.404 62.2244Z" fill="black"/>
<path d="M77.3295 122.545V140H75.7358V124.216H75.6335L71.5426 126.935V125.281L75.6676 122.545H77.3295ZM86.3722 131.273C86.3722 133.318 86.1136 135.25 85.5966 137.068C85.0795 138.886 84.3381 140.591 83.3722 142.182H81.9915C82.4063 141.511 82.7841 140.753 83.125 139.906C83.4716 139.06 83.7699 138.156 84.0199 137.196C84.2699 136.236 84.4631 135.253 84.5994 134.247C84.7358 133.241 84.804 132.25 84.804 131.273C84.804 129.96 84.6847 128.636 84.446 127.301C84.2074 125.966 83.875 124.699 83.4489 123.5C83.0284 122.301 82.5426 121.256 81.9915 120.364H83.3722C84.3381 121.96 85.0795 123.668 85.5966 125.486C86.1136 127.304 86.3722 129.233 86.3722 131.273ZM103.778 122.545V140H102.192V123.977H92.7919V140H91.1982V122.545H103.778ZM111.636 140.298C110.846 140.298 110.124 140.145 109.471 139.838C108.817 139.526 108.298 139.077 107.911 138.491C107.525 137.901 107.332 137.185 107.332 136.344C107.332 135.696 107.454 135.151 107.698 134.707C107.942 134.264 108.289 133.901 108.738 133.616C109.187 133.332 109.718 133.108 110.332 132.943C110.945 132.778 111.621 132.651 112.36 132.56C113.093 132.469 113.712 132.389 114.218 132.321C114.729 132.253 115.119 132.145 115.386 131.997C115.653 131.849 115.786 131.611 115.786 131.281V130.974C115.786 130.082 115.519 129.381 114.985 128.869C114.457 128.352 113.695 128.094 112.701 128.094C111.758 128.094 110.988 128.301 110.391 128.716C109.8 129.131 109.386 129.619 109.147 130.182L107.707 129.662C108.002 128.946 108.411 128.375 108.934 127.949C109.457 127.517 110.042 127.207 110.69 127.02C111.337 126.827 111.994 126.73 112.658 126.73C113.158 126.73 113.678 126.795 114.218 126.926C114.763 127.057 115.269 127.284 115.735 127.608C116.201 127.926 116.579 128.372 116.869 128.946C117.158 129.514 117.303 130.236 117.303 131.111V140H115.786V137.929H115.692C115.511 138.315 115.241 138.69 114.883 139.054C114.525 139.418 114.076 139.716 113.536 139.949C112.996 140.182 112.363 140.298 111.636 140.298ZM111.84 138.909C112.647 138.909 113.346 138.73 113.937 138.372C114.528 138.014 114.982 137.54 115.3 136.949C115.624 136.352 115.786 135.696 115.786 134.98V133.088C115.673 133.196 115.482 133.293 115.215 133.378C114.954 133.463 114.65 133.54 114.303 133.608C113.962 133.67 113.621 133.724 113.281 133.77C112.94 133.815 112.633 133.855 112.36 133.889C111.621 133.98 110.991 134.122 110.468 134.315C109.945 134.509 109.545 134.776 109.266 135.116C108.988 135.452 108.849 135.884 108.849 136.412C108.849 137.207 109.133 137.824 109.701 138.261C110.269 138.693 110.982 138.909 111.84 138.909ZM126.452 140.273C125.282 140.273 124.262 139.98 123.393 139.395C122.529 138.81 121.859 138.009 121.381 136.991C120.904 135.974 120.665 134.815 120.665 133.514C120.665 132.202 120.907 131.034 121.39 130.011C121.879 128.989 122.555 128.187 123.418 127.608C124.282 127.023 125.285 126.73 126.427 126.73C127.302 126.73 128.094 126.901 128.805 127.241C129.515 127.577 130.1 128.051 130.56 128.665C131.026 129.273 131.319 129.983 131.438 130.795H129.904C129.745 130.057 129.362 129.426 128.754 128.903C128.151 128.375 127.384 128.111 126.452 128.111C125.617 128.111 124.879 128.338 124.237 128.793C123.594 129.241 123.092 129.869 122.728 130.676C122.37 131.477 122.191 132.406 122.191 133.463C122.191 134.526 122.367 135.466 122.719 136.284C123.072 137.097 123.566 137.733 124.202 138.193C124.844 138.653 125.594 138.884 126.452 138.884C127.032 138.884 127.56 138.776 128.038 138.56C128.521 138.338 128.924 138.026 129.248 137.622C129.577 137.219 129.799 136.739 129.913 136.182H131.447C131.333 136.972 131.052 137.676 130.603 138.295C130.16 138.909 129.583 139.392 128.873 139.744C128.168 140.097 127.362 140.273 126.452 140.273ZM134.715 140V126.909H144.627V140H143.102V128.341H136.241V140H134.715ZM153.732 140.273C152.601 140.273 151.601 139.986 150.732 139.412C149.868 138.838 149.192 138.045 148.703 137.034C148.214 136.017 147.97 134.844 147.97 133.514C147.97 132.173 148.214 130.994 148.703 129.977C149.192 128.955 149.868 128.159 150.732 127.591C151.601 127.017 152.601 126.73 153.732 126.73C154.862 126.73 155.859 127.017 156.723 127.591C157.587 128.165 158.263 128.96 158.751 129.977C159.246 130.994 159.493 132.173 159.493 133.514C159.493 134.844 159.249 136.017 158.76 137.034C158.271 138.045 157.592 138.838 156.723 139.412C155.859 139.986 154.862 140.273 153.732 140.273ZM153.732 138.884C154.641 138.884 155.411 138.639 156.041 138.151C156.672 137.662 157.149 137.011 157.473 136.199C157.803 135.386 157.967 134.491 157.967 133.514C157.967 132.537 157.803 131.639 157.473 130.821C157.149 130.003 156.672 129.347 156.041 128.852C155.411 128.358 154.641 128.111 153.732 128.111C152.828 128.111 152.058 128.358 151.422 128.852C150.791 129.347 150.311 130.003 149.982 130.821C149.658 131.639 149.496 132.537 149.496 133.514C149.496 134.491 149.658 135.386 149.982 136.199C150.311 137.011 150.791 137.662 151.422 138.151C152.053 138.639 152.822 138.884 153.732 138.884ZM162.823 144.909V126.909H164.298V129.406H164.477C164.658 129.014 164.908 128.614 165.227 128.205C165.545 127.79 165.965 127.44 166.488 127.156C167.016 126.872 167.681 126.73 168.482 126.73C169.562 126.73 170.505 127.014 171.312 127.582C172.124 128.145 172.755 128.935 173.204 129.952C173.658 130.963 173.886 132.142 173.886 133.489C173.886 134.841 173.658 136.026 173.204 137.043C172.755 138.06 172.124 138.852 171.312 139.42C170.505 139.989 169.567 140.273 168.499 140.273C167.71 140.273 167.048 140.131 166.513 139.847C165.985 139.562 165.556 139.213 165.227 138.798C164.903 138.378 164.653 137.969 164.477 137.571H164.34V144.909H162.823ZM164.323 133.463C164.323 134.52 164.479 135.457 164.792 136.276C165.11 137.088 165.565 137.727 166.156 138.193C166.752 138.653 167.474 138.884 168.32 138.884C169.19 138.884 169.923 138.645 170.519 138.168C171.121 137.685 171.579 137.034 171.891 136.216C172.21 135.398 172.369 134.48 172.369 133.463C172.369 132.457 172.212 131.551 171.9 130.744C171.593 129.937 171.138 129.298 170.536 128.827C169.934 128.349 169.195 128.111 168.32 128.111C167.468 128.111 166.744 128.341 166.147 128.801C165.55 129.256 165.096 129.886 164.783 130.693C164.477 131.494 164.323 132.418 164.323 133.463ZM175.452 128.341V126.909H185.679V128.341H181.349V140H179.832V128.341H175.452ZM71.9432 169V167.832L77.6449 161.423C78.3892 160.582 78.9886 159.864 79.4432 159.267C79.8977 158.67 80.2273 158.119 80.4318 157.614C80.642 157.108 80.7472 156.582 80.7472 156.037C80.7472 155.372 80.5909 154.793 80.2784 154.298C79.9716 153.798 79.5483 153.409 79.0085 153.131C78.4688 152.852 77.8608 152.713 77.1847 152.713C76.4688 152.713 75.8409 152.866 75.3011 153.173C74.767 153.48 74.3523 153.901 74.0568 154.435C73.7614 154.969 73.6136 155.582 73.6136 156.276H72.0881C72.0881 155.31 72.3097 154.455 72.7528 153.71C73.2017 152.96 73.8125 152.372 74.5852 151.946C75.3636 151.52 76.2443 151.307 77.2273 151.307C78.1989 151.307 79.0625 151.517 79.8182 151.938C80.5739 152.352 81.1676 152.918 81.5994 153.634C82.0313 154.349 82.2472 155.151 82.2472 156.037C82.2472 156.679 82.1335 157.301 81.9062 157.903C81.6847 158.506 81.3011 159.176 80.7557 159.915C80.2102 160.653 79.4545 161.557 78.4886 162.625L74.1591 167.457V167.568H82.7926V169H71.9432ZM90.3331 160.273C90.3331 162.318 90.0746 164.25 89.5575 166.068C89.0405 167.886 88.299 169.591 87.3331 171.182H85.9524C86.3672 170.511 86.745 169.753 87.0859 168.906C87.4325 168.06 87.7308 167.156 87.9808 166.196C88.2308 165.236 88.424 164.253 88.5604 163.247C88.6967 162.241 88.7649 161.25 88.7649 160.273C88.7649 158.96 88.6456 157.636 88.407 156.301C88.1683 154.966 87.8359 153.699 87.4098 152.5C86.9893 151.301 86.5036 150.256 85.9524 149.364H87.3331C88.299 150.96 89.0405 152.668 89.5575 154.486C90.0746 156.304 90.3331 158.233 90.3331 160.273ZM108.957 157H107.355C107.236 156.403 107.02 155.852 106.707 155.347C106.401 154.835 106.014 154.389 105.548 154.009C105.082 153.628 104.554 153.332 103.963 153.122C103.372 152.912 102.733 152.807 102.045 152.807C100.943 152.807 99.9375 153.094 99.0284 153.668C98.125 154.241 97.4006 155.085 96.8551 156.199C96.3153 157.307 96.0455 158.665 96.0455 160.273C96.0455 161.892 96.3153 163.256 96.8551 164.364C97.4006 165.472 98.125 166.312 99.0284 166.886C99.9375 167.455 100.943 167.739 102.045 167.739C102.733 167.739 103.372 167.634 103.963 167.423C104.554 167.213 105.082 166.92 105.548 166.545C106.014 166.165 106.401 165.719 106.707 165.207C107.02 164.696 107.236 164.142 107.355 163.545H108.957C108.815 164.347 108.548 165.094 108.156 165.787C107.77 166.474 107.276 167.077 106.673 167.594C106.077 168.111 105.389 168.514 104.611 168.804C103.832 169.094 102.977 169.239 102.045 169.239C100.58 169.239 99.2784 168.872 98.142 168.139C97.0057 167.401 96.1136 166.361 95.4659 165.02C94.8239 163.679 94.5028 162.097 94.5028 160.273C94.5028 158.449 94.8239 156.866 95.4659 155.526C96.1136 154.185 97.0057 153.148 98.142 152.415C99.2784 151.676 100.58 151.307 102.045 151.307C102.977 151.307 103.832 151.452 104.611 151.741C105.389 152.026 106.077 152.429 106.673 152.952C107.276 153.469 107.77 154.071 108.156 154.759C108.548 155.446 108.815 156.193 108.957 157ZM112.701 169V151.545H114.295V159.548H124.198V151.545H125.792V169H124.198V160.98H114.295V169H112.701ZM130.42 151.545H131.988V166.179H132.124L142.462 151.545H144.013V169H142.42V154.384H142.283L131.962 169H130.42V151.545ZM147.009 169V167.526H147.469C148.191 167.526 148.762 167.287 149.183 166.81C149.603 166.327 149.913 165.554 150.112 164.491C150.31 163.429 150.441 162.031 150.504 160.298L150.81 151.545H161.055V169H159.461V152.977H152.327L152.046 160.648C151.978 162.494 151.808 164.037 151.535 165.276C151.262 166.509 150.808 167.438 150.171 168.062C149.54 168.688 148.648 169 147.495 169H147.009ZM179.364 157H177.761C177.642 156.403 177.426 155.852 177.114 155.347C176.807 154.835 176.42 154.389 175.955 154.009C175.489 153.628 174.96 153.332 174.369 153.122C173.778 152.912 173.139 152.807 172.452 152.807C171.349 152.807 170.344 153.094 169.435 153.668C168.531 154.241 167.807 155.085 167.261 156.199C166.722 157.307 166.452 158.665 166.452 160.273C166.452 161.892 166.722 163.256 167.261 164.364C167.807 165.472 168.531 166.312 169.435 166.886C170.344 167.455 171.349 167.739 172.452 167.739C173.139 167.739 173.778 167.634 174.369 167.423C174.96 167.213 175.489 166.92 175.955 166.545C176.42 166.165 176.807 165.719 177.114 165.207C177.426 164.696 177.642 164.142 177.761 163.545H179.364C179.222 164.347 178.955 165.094 178.562 165.787C178.176 166.474 177.682 167.077 177.08 167.594C176.483 168.111 175.795 168.514 175.017 168.804C174.239 169.094 173.384 169.239 172.452 169.239C170.986 169.239 169.685 168.872 168.548 168.139C167.412 167.401 166.52 166.361 165.872 165.02C165.23 163.679 164.909 162.097 164.909 160.273C164.909 158.449 165.23 156.866 165.872 155.526C166.52 154.185 167.412 153.148 168.548 152.415C169.685 151.676 170.986 151.307 172.452 151.307C173.384 151.307 174.239 151.452 175.017 151.741C175.795 152.026 176.483 152.429 177.08 152.952C177.682 153.469 178.176 154.071 178.562 154.759C178.955 155.446 179.222 156.193 179.364 157ZM77.6108 198.239C76.5369 198.239 75.5767 198.045 74.7301 197.659C73.8835 197.267 73.2131 196.724 72.7188 196.031C72.2244 195.338 71.9631 194.54 71.9347 193.636H73.5455C73.5739 194.273 73.7699 194.83 74.1335 195.307C74.4972 195.778 74.9801 196.148 75.5824 196.415C76.1847 196.676 76.8551 196.807 77.5938 196.807C78.4006 196.807 79.1108 196.656 79.7244 196.355C80.3438 196.054 80.8267 195.642 81.1733 195.119C81.5256 194.591 81.7017 193.994 81.7017 193.33C81.7017 192.625 81.5227 192.003 81.1648 191.463C80.8068 190.923 80.2926 190.503 79.6222 190.202C78.9574 189.901 78.1619 189.75 77.2358 189.75H76.2131V188.318H77.2358C77.9915 188.318 78.6591 188.182 79.2386 187.909C79.8239 187.631 80.2841 187.241 80.6193 186.741C80.9545 186.241 81.1222 185.653 81.1222 184.977C81.1222 184.335 80.9773 183.77 80.6875 183.281C80.3977 182.793 79.9886 182.409 79.4602 182.131C78.9375 181.852 78.3267 181.713 77.6278 181.713C76.9517 181.713 76.3324 181.844 75.7699 182.105C75.2074 182.366 74.7528 182.736 74.4062 183.213C74.0653 183.69 73.8835 184.256 73.8608 184.909H72.3182C72.3409 184 72.5909 183.202 73.0682 182.514C73.5511 181.821 74.1903 181.281 74.9858 180.895C75.7869 180.503 76.6733 180.307 77.6449 180.307C78.6733 180.307 79.5625 180.517 80.3125 180.938C81.0625 181.358 81.642 181.918 82.0511 182.616C82.4659 183.31 82.6733 184.074 82.6733 184.909C82.6733 185.903 82.4034 186.756 81.8636 187.466C81.3239 188.17 80.5966 188.659 79.6818 188.932V189.043C80.7955 189.264 81.6705 189.759 82.3068 190.526C82.9489 191.287 83.2699 192.222 83.2699 193.33C83.2699 194.261 83.0256 195.099 82.5369 195.844C82.0483 196.582 81.3778 197.168 80.5256 197.599C79.679 198.026 78.7074 198.239 77.6108 198.239ZM90.7784 189.273C90.7784 191.318 90.5199 193.25 90.0028 195.068C89.4858 196.886 88.7443 198.591 87.7784 200.182H86.3977C86.8125 199.511 87.1903 198.753 87.5312 197.906C87.8778 197.06 88.1761 196.156 88.4261 195.196C88.6761 194.236 88.8693 193.253 89.0057 192.247C89.142 191.241 89.2102 190.25 89.2102 189.273C89.2102 187.96 89.0909 186.636 88.8523 185.301C88.6136 183.966 88.2813 182.699 87.8551 181.5C87.4347 180.301 86.9489 179.256 86.3977 178.364H87.7784C88.7443 179.96 89.4858 181.668 90.0028 183.486C90.5199 185.304 90.7784 187.233 90.7784 189.273ZM109.403 186H107.8C107.681 185.403 107.465 184.852 107.153 184.347C106.846 183.835 106.46 183.389 105.994 183.009C105.528 182.628 104.999 182.332 104.408 182.122C103.817 181.912 103.178 181.807 102.491 181.807C101.388 181.807 100.383 182.094 99.4737 182.668C98.5703 183.241 97.8459 184.085 97.3004 185.199C96.7607 186.307 96.4908 187.665 96.4908 189.273C96.4908 190.892 96.7607 192.256 97.3004 193.364C97.8459 194.472 98.5703 195.312 99.4737 195.886C100.383 196.455 101.388 196.739 102.491 196.739C103.178 196.739 103.817 196.634 104.408 196.423C104.999 196.213 105.528 195.92 105.994 195.545C106.46 195.165 106.846 194.719 107.153 194.207C107.465 193.696 107.681 193.142 107.8 192.545H109.403C109.261 193.347 108.994 194.094 108.602 194.787C108.215 195.474 107.721 196.077 107.119 196.594C106.522 197.111 105.835 197.514 105.056 197.804C104.278 198.094 103.423 198.239 102.491 198.239C101.025 198.239 99.7237 197.872 98.5874 197.139C97.451 196.401 96.5589 195.361 95.9112 194.02C95.2692 192.679 94.9482 191.097 94.9482 189.273C94.9482 187.449 95.2692 185.866 95.9112 184.526C96.5589 183.185 97.451 182.148 98.5874 181.415C99.7237 180.676 101.025 180.307 102.491 180.307C103.423 180.307 104.278 180.452 105.056 180.741C105.835 181.026 106.522 181.429 107.119 181.952C107.721 182.469 108.215 183.071 108.602 183.759C108.994 184.446 109.261 185.193 109.403 186ZM113.146 198V180.545H119.036C120.172 180.545 121.118 180.744 121.874 181.142C122.635 181.54 123.206 182.082 123.587 182.77C123.967 183.457 124.158 184.239 124.158 185.114C124.158 185.841 124.036 186.463 123.791 186.98C123.547 187.497 123.214 187.915 122.794 188.233C122.374 188.551 121.905 188.781 121.388 188.923V189.06C121.95 189.099 122.496 189.298 123.024 189.656C123.553 190.009 123.987 190.503 124.328 191.139C124.669 191.776 124.839 192.537 124.839 193.423C124.839 194.304 124.643 195.091 124.251 195.784C123.859 196.472 123.257 197.014 122.445 197.412C121.638 197.804 120.609 198 119.359 198H113.146ZM114.74 196.568H119.359C120.706 196.568 121.7 196.27 122.342 195.673C122.99 195.077 123.314 194.327 123.314 193.423C123.314 192.759 123.152 192.156 122.828 191.616C122.51 191.071 122.058 190.639 121.473 190.321C120.893 190.003 120.212 189.844 119.428 189.844H114.74V196.568ZM114.74 188.429H119.18C119.868 188.429 120.47 188.287 120.987 188.003C121.504 187.719 121.908 187.327 122.197 186.827C122.487 186.327 122.632 185.756 122.632 185.114C122.632 184.187 122.331 183.435 121.729 182.855C121.126 182.27 120.229 181.977 119.036 181.977H114.74V188.429ZM128.685 198V180.545H138.81V181.977H130.279V188.548H138.273V189.98H130.279V196.568H138.981V198H128.685ZM141.29 202.236V196.568H142.398C142.802 196.148 143.174 195.594 143.515 194.906C143.856 194.213 144.14 193.321 144.367 192.23C144.6 191.134 144.751 189.764 144.819 188.122L145.168 180.545H155.148V196.568H157.194V202.193H155.677V198H142.808V202.236H141.29ZM144.308 196.568H153.631V181.977H146.617L146.344 188.122C146.282 189.457 146.165 190.648 145.995 191.693C145.825 192.733 145.597 193.656 145.313 194.463C145.035 195.264 144.7 195.966 144.308 196.568ZM160.631 198V180.545H170.756V181.977H162.224V188.548H170.219V189.98H162.224V196.568H170.926V198H160.631ZM173.824 181.977V180.545H186.48V181.977H180.949V198H179.355V181.977H173.824ZM190.068 198V180.545H200.193V181.977H191.662V188.548H199.656V189.98H191.662V196.568H200.364V198H190.068ZM202.673 198V196.526H203.134C203.855 196.526 204.426 196.287 204.847 195.81C205.267 195.327 205.577 194.554 205.776 193.491C205.974 192.429 206.105 191.031 206.168 189.298L206.474 180.545H216.719V198H215.125V181.977H207.991L207.71 189.648C207.642 191.494 207.472 193.037 207.199 194.276C206.926 195.509 206.472 196.438 205.835 197.062C205.205 197.688 204.313 198 203.159 198H202.673ZM222.508 188.216H227.903C229.067 188.216 230.056 188.412 230.869 188.804C231.687 189.196 232.312 189.75 232.744 190.466C233.175 191.176 233.391 192.017 233.391 192.989C233.391 193.989 233.175 194.864 232.744 195.614C232.317 196.364 231.695 196.949 230.877 197.369C230.065 197.79 229.073 198 227.903 198H221.357V180.545H222.951V196.594H227.903C228.738 196.594 229.445 196.432 230.025 196.108C230.61 195.778 231.056 195.341 231.363 194.795C231.67 194.244 231.823 193.631 231.823 192.955C231.823 192.017 231.477 191.233 230.783 190.602C230.096 189.966 229.136 189.648 227.903 189.648H222.508V188.216ZM250.707 186H249.105C248.986 185.403 248.77 184.852 248.457 184.347C248.151 183.835 247.764 183.389 247.298 183.009C246.832 182.628 246.304 182.332 245.713 182.122C245.122 181.912 244.483 181.807 243.795 181.807C242.693 181.807 241.688 182.094 240.778 182.668C239.875 183.241 239.151 184.085 238.605 185.199C238.065 186.307 237.795 187.665 237.795 189.273C237.795 190.892 238.065 192.256 238.605 193.364C239.151 194.472 239.875 195.312 240.778 195.886C241.688 196.455 242.693 196.739 243.795 196.739C244.483 196.739 245.122 196.634 245.713 196.423C246.304 196.213 246.832 195.92 247.298 195.545C247.764 195.165 248.151 194.719 248.457 194.207C248.77 193.696 248.986 193.142 249.105 192.545H250.707C250.565 193.347 250.298 194.094 249.906 194.787C249.52 195.474 249.026 196.077 248.423 196.594C247.827 197.111 247.139 197.514 246.361 197.804C245.582 198.094 244.727 198.239 243.795 198.239C242.33 198.239 241.028 197.872 239.892 197.139C238.756 196.401 237.864 195.361 237.216 194.02C236.574 192.679 236.253 191.097 236.253 189.273C236.253 187.449 236.574 185.866 237.216 184.526C237.864 183.185 238.756 182.148 239.892 181.415C241.028 180.676 242.33 180.307 243.795 180.307C244.727 180.307 245.582 180.452 246.361 180.741C247.139 181.026 247.827 181.429 248.423 181.952C249.026 182.469 249.52 183.071 249.906 183.759C250.298 184.446 250.565 185.193 250.707 186ZM253.394 181.977V180.545H266.05V181.977H260.519V198H258.925V181.977H253.394ZM269.638 198V180.545H275.528C276.664 180.545 277.61 180.744 278.366 181.142C279.127 181.54 279.698 182.082 280.079 182.77C280.46 183.457 280.65 184.239 280.65 185.114C280.65 185.841 280.528 186.463 280.283 186.98C280.039 187.497 279.707 187.915 279.286 188.233C278.866 188.551 278.397 188.781 277.88 188.923V189.06C278.442 189.099 278.988 189.298 279.516 189.656C280.045 190.009 280.479 190.503 280.82 191.139C281.161 191.776 281.332 192.537 281.332 193.423C281.332 194.304 281.136 195.091 280.744 195.784C280.352 196.472 279.749 197.014 278.937 197.412C278.13 197.804 277.102 198 275.852 198H269.638ZM271.232 196.568H275.852C277.198 196.568 278.192 196.27 278.835 195.673C279.482 195.077 279.806 194.327 279.806 193.423C279.806 192.759 279.644 192.156 279.32 191.616C279.002 191.071 278.55 190.639 277.965 190.321C277.386 190.003 276.704 189.844 275.92 189.844H271.232V196.568ZM271.232 188.429H275.673C276.36 188.429 276.962 188.287 277.479 188.003C277.996 187.719 278.4 187.327 278.69 186.827C278.979 186.327 279.124 185.756 279.124 185.114C279.124 184.187 278.823 183.435 278.221 182.855C277.619 182.27 276.721 181.977 275.528 181.977H271.232V188.429ZM299.487 189.273C299.487 191.091 299.163 192.673 298.516 194.02C297.868 195.361 296.976 196.401 295.839 197.139C294.709 197.872 293.408 198.239 291.936 198.239C290.464 198.239 289.161 197.872 288.024 197.139C286.893 196.401 286.004 195.361 285.357 194.02C284.714 192.673 284.393 191.091 284.393 189.273C284.393 187.455 284.714 185.875 285.357 184.534C286.004 183.187 286.896 182.148 288.033 181.415C289.169 180.676 290.47 180.307 291.936 180.307C293.408 180.307 294.709 180.676 295.839 181.415C296.976 182.148 297.868 183.187 298.516 184.534C299.163 185.875 299.487 187.455 299.487 189.273ZM297.936 189.273C297.936 187.71 297.675 186.372 297.152 185.259C296.629 184.139 295.916 183.284 295.013 182.693C294.109 182.102 293.084 181.807 291.936 181.807C290.794 181.807 289.771 182.102 288.868 182.693C287.964 183.284 287.249 184.136 286.72 185.25C286.197 186.364 285.936 187.705 285.936 189.273C285.936 190.835 286.197 192.173 286.72 193.287C287.243 194.401 287.956 195.256 288.859 195.852C289.763 196.443 290.788 196.739 291.936 196.739C293.084 196.739 294.109 196.443 295.013 195.852C295.922 195.261 296.638 194.409 297.161 193.295C297.683 192.176 297.942 190.835 297.936 189.273ZM324.401 189.273C324.401 191.091 324.077 192.673 323.43 194.02C322.782 195.361 321.89 196.401 320.754 197.139C319.623 197.872 318.322 198.239 316.85 198.239C315.379 198.239 314.075 197.872 312.938 197.139C311.808 196.401 310.918 195.361 310.271 194.02C309.629 192.673 309.308 191.091 309.308 189.273C309.308 187.455 309.629 185.875 310.271 184.534C310.918 183.187 311.81 182.148 312.947 181.415C314.083 180.676 315.384 180.307 316.85 180.307C318.322 180.307 319.623 180.676 320.754 181.415C321.89 182.148 322.782 183.187 323.43 184.534C324.077 185.875 324.401 187.455 324.401 189.273ZM322.85 189.273C322.85 187.71 322.589 186.372 322.066 185.259C321.543 184.139 320.83 183.284 319.927 182.693C319.023 182.102 317.998 181.807 316.85 181.807C315.708 181.807 314.685 182.102 313.782 182.693C312.879 183.284 312.163 184.136 311.634 185.25C311.112 186.364 310.85 187.705 310.85 189.273C310.85 190.835 311.112 192.173 311.634 193.287C312.157 194.401 312.87 195.256 313.773 195.852C314.677 196.443 315.702 196.739 316.85 196.739C317.998 196.739 319.023 196.443 319.927 195.852C320.836 195.261 321.552 194.409 322.075 193.295C322.597 192.176 322.856 190.835 322.85 189.273ZM335.006 198V180.545H340.639C341.878 180.545 342.912 180.784 343.741 181.261C344.577 181.733 345.205 182.375 345.625 183.188C346.051 184 346.264 184.915 346.264 185.932C346.264 186.949 346.054 187.866 345.634 188.685C345.213 189.497 344.588 190.142 343.759 190.619C342.929 191.091 341.898 191.327 340.665 191.327H336.233V189.895H340.622C341.537 189.895 342.295 189.724 342.898 189.384C343.5 189.037 343.949 188.565 344.244 187.969C344.545 187.372 344.696 186.693 344.696 185.932C344.696 185.17 344.545 184.491 344.244 183.895C343.949 183.298 343.497 182.83 342.889 182.489C342.287 182.148 341.523 181.977 340.597 181.977H336.599V198H335.006ZM364.315 189.273C364.315 191.091 363.991 192.673 363.344 194.02C362.696 195.361 361.804 196.401 360.668 197.139C359.537 197.872 358.236 198.239 356.764 198.239C355.293 198.239 353.989 197.872 352.852 197.139C351.722 196.401 350.832 195.361 350.185 194.02C349.543 192.673 349.222 191.091 349.222 189.273C349.222 187.455 349.543 185.875 350.185 184.534C350.832 183.187 351.724 182.148 352.861 181.415C353.997 180.676 355.298 180.307 356.764 180.307C358.236 180.307 359.537 180.676 360.668 181.415C361.804 182.148 362.696 183.187 363.344 184.534C363.991 185.875 364.315 187.455 364.315 189.273ZM362.764 189.273C362.764 187.71 362.503 186.372 361.98 185.259C361.457 184.139 360.744 183.284 359.841 182.693C358.938 182.102 357.912 181.807 356.764 181.807C355.622 181.807 354.599 182.102 353.696 182.693C352.793 183.284 352.077 184.136 351.548 185.25C351.026 186.364 350.764 187.705 350.764 189.273C350.764 190.835 351.026 192.173 351.548 193.287C352.071 194.401 352.784 195.256 353.688 195.852C354.591 196.443 355.616 196.739 356.764 196.739C357.912 196.739 358.938 196.443 359.841 195.852C360.75 195.261 361.466 194.409 361.989 193.295C362.511 192.176 362.77 190.835 362.764 189.273ZM377.306 180.545V198H375.712V180.545H377.306ZM366.099 198L372.065 188.949L366.781 180.545H368.707L373.496 188.455H379.548L384.337 180.545H386.263L380.962 188.974L386.92 198H385.087L379.803 189.946H373.224L367.914 198H366.099ZM388.017 202.236V196.568H389.125C389.528 196.148 389.901 195.594 390.241 194.906C390.582 194.213 390.866 193.321 391.094 192.23C391.327 191.134 391.477 189.764 391.545 188.122L391.895 180.545H401.875V196.568H403.92V202.193H402.403V198H389.534V202.236H388.017ZM391.034 196.568H400.358V181.977H393.344L393.071 188.122C393.009 189.457 392.892 190.648 392.722 191.693C392.551 192.733 392.324 193.656 392.04 194.463C391.761 195.264 391.426 195.966 391.034 196.568ZM407.357 198V180.545H417.482V181.977H408.951V188.548H416.945V189.98H408.951V196.568H417.653V198H407.357ZM421.607 198V180.545H423.201V188.548H433.104V180.545H434.698V198H433.104V189.98H423.201V198H421.607ZM439.326 180.545H440.894V195.179H441.031L451.369 180.545H452.92V198H451.326V183.384H451.19L440.869 198H439.326V180.545ZM457.56 180.545H459.129V195.179H459.265L469.603 180.545H471.154V198H469.56V183.384H469.424L459.103 198H457.56V180.545Z" fill="black"/>
<path d="M646.526 136.25V134.955L654.307 122.545H655.261V124.719H654.554L648.307 134.707V134.818H658.509V136.25H646.526ZM654.673 140V135.841V135.244V122.545H656.19V140H654.673ZM665.708 131.273C665.708 133.318 665.45 135.25 664.933 137.068C664.415 138.886 663.674 140.591 662.708 142.182H661.327C661.742 141.511 662.12 140.753 662.461 139.906C662.808 139.06 663.106 138.156 663.356 137.196C663.606 136.236 663.799 135.253 663.935 134.247C664.072 133.241 664.14 132.25 664.14 131.273C664.14 129.96 664.021 128.636 663.782 127.301C663.543 125.966 663.211 124.699 662.785 123.5C662.364 122.301 661.879 121.256 661.327 120.364H662.708C663.674 121.96 664.415 123.668 664.933 125.486C665.45 127.304 665.708 129.233 665.708 131.273ZM670.688 140H669.017L675.366 122.545H677.071L683.42 140H681.75L676.278 124.616H676.159L670.688 140ZM671.889 133.31H680.548V134.741H671.889V133.31ZM685.295 128.341V126.909H695.523V128.341H691.193V140H689.676V128.341H685.295ZM697.928 128.341V126.909H708.156V128.341H703.826V140H702.309V128.341H697.928ZM715.975 140.273C714.754 140.273 713.697 139.989 712.805 139.42C711.913 138.847 711.222 138.054 710.734 137.043C710.251 136.026 710.009 134.855 710.009 133.531C710.009 132.213 710.251 131.043 710.734 130.02C711.222 128.991 711.896 128.187 712.754 127.608C713.617 127.023 714.614 126.73 715.745 126.73C716.455 126.73 717.14 126.861 717.799 127.122C718.458 127.378 719.049 127.773 719.572 128.307C720.1 128.835 720.518 129.503 720.825 130.31C721.131 131.111 721.285 132.06 721.285 133.156V133.906H711.058V132.568H719.734C719.734 131.727 719.563 130.972 719.222 130.301C718.887 129.625 718.418 129.091 717.816 128.699C717.219 128.307 716.529 128.111 715.745 128.111C714.915 128.111 714.185 128.332 713.555 128.776C712.924 129.219 712.43 129.804 712.072 130.531C711.719 131.259 711.54 132.054 711.535 132.918V133.719C711.535 134.759 711.714 135.668 712.072 136.446C712.435 137.219 712.95 137.818 713.614 138.244C714.279 138.67 715.066 138.884 715.975 138.884C716.594 138.884 717.137 138.787 717.603 138.594C718.075 138.401 718.469 138.142 718.788 137.818C719.112 137.489 719.356 137.128 719.521 136.736L720.961 137.205C720.762 137.756 720.435 138.264 719.981 138.73C719.532 139.196 718.969 139.571 718.293 139.855C717.623 140.134 716.85 140.273 715.975 140.273ZM729.741 140.273C728.571 140.273 727.551 139.98 726.682 139.395C725.818 138.81 725.148 138.009 724.67 136.991C724.193 135.974 723.955 134.815 723.955 133.514C723.955 132.202 724.196 131.034 724.679 130.011C725.168 128.989 725.844 128.187 726.707 127.608C727.571 127.023 728.574 126.73 729.716 126.73C730.591 126.73 731.384 126.901 732.094 127.241C732.804 127.577 733.389 128.051 733.849 128.665C734.315 129.273 734.608 129.983 734.727 130.795H733.193C733.034 130.057 732.651 129.426 732.043 128.903C731.44 128.375 730.673 128.111 729.741 128.111C728.906 128.111 728.168 128.338 727.526 128.793C726.884 129.241 726.381 129.869 726.017 130.676C725.659 131.477 725.48 132.406 725.48 133.463C725.48 134.526 725.656 135.466 726.009 136.284C726.361 137.097 726.855 137.733 727.491 138.193C728.134 138.653 728.884 138.884 729.741 138.884C730.321 138.884 730.849 138.776 731.327 138.56C731.81 138.338 732.213 138.026 732.537 137.622C732.866 137.219 733.088 136.739 733.202 136.182H734.736C734.622 136.972 734.341 137.676 733.892 138.295C733.449 138.909 732.872 139.392 732.162 139.744C731.457 140.097 730.651 140.273 729.741 140.273ZM736.905 128.341V126.909H747.132V128.341H742.803V140H741.286V128.341H736.905ZM753.315 140.298C752.526 140.298 751.804 140.145 751.151 139.838C750.497 139.526 749.977 139.077 749.591 138.491C749.205 137.901 749.011 137.185 749.011 136.344C749.011 135.696 749.134 135.151 749.378 134.707C749.622 134.264 749.969 133.901 750.418 133.616C750.866 133.332 751.398 133.108 752.011 132.943C752.625 132.778 753.301 132.651 754.04 132.56C754.773 132.469 755.392 132.389 755.898 132.321C756.409 132.253 756.798 132.145 757.065 131.997C757.332 131.849 757.466 131.611 757.466 131.281V130.974C757.466 130.082 757.199 129.381 756.665 128.869C756.136 128.352 755.375 128.094 754.381 128.094C753.438 128.094 752.668 128.301 752.071 128.716C751.48 129.131 751.065 129.619 750.827 130.182L749.386 129.662C749.682 128.946 750.091 128.375 750.614 127.949C751.136 127.517 751.722 127.207 752.369 127.02C753.017 126.827 753.673 126.73 754.338 126.73C754.838 126.73 755.358 126.795 755.898 126.926C756.443 127.057 756.949 127.284 757.415 127.608C757.881 127.926 758.259 128.372 758.548 128.946C758.838 129.514 758.983 130.236 758.983 131.111V140H757.466V137.929H757.372C757.19 138.315 756.92 138.69 756.562 139.054C756.205 139.418 755.756 139.716 755.216 139.949C754.676 140.182 754.043 140.298 753.315 140.298ZM753.52 138.909C754.327 138.909 755.026 138.73 755.616 138.372C756.207 138.014 756.662 137.54 756.98 136.949C757.304 136.352 757.466 135.696 757.466 134.98V133.088C757.352 133.196 757.162 133.293 756.895 133.378C756.634 133.463 756.33 133.54 755.983 133.608C755.642 133.67 755.301 133.724 754.96 133.77C754.619 133.815 754.312 133.855 754.04 133.889C753.301 133.98 752.67 134.122 752.148 134.315C751.625 134.509 751.224 134.776 750.946 135.116C750.668 135.452 750.528 135.884 750.528 136.412C750.528 137.207 750.812 137.824 751.381 138.261C751.949 138.693 752.662 138.909 753.52 138.909ZM761.186 128.341V126.909H771.413V128.341H767.084V140H765.567V128.341H761.186ZM652.048 169.239C651.077 169.239 650.207 169.043 649.44 168.651C648.679 168.253 648.071 167.707 647.616 167.014C647.168 166.321 646.929 165.528 646.901 164.636H648.443C648.494 165.562 648.858 166.324 649.534 166.92C650.21 167.511 651.048 167.807 652.048 167.807C652.827 167.807 653.52 167.622 654.128 167.253C654.736 166.878 655.21 166.366 655.551 165.719C655.898 165.065 656.071 164.33 656.071 163.511C656.065 162.659 655.881 161.909 655.517 161.261C655.153 160.608 654.659 160.097 654.034 159.727C653.415 159.358 652.719 159.173 651.946 159.173C651.361 159.168 650.787 159.264 650.224 159.463C649.662 159.662 649.193 159.918 648.818 160.23L647.224 160.026L648.273 151.545H656.898V152.977H649.611L648.912 158.815H648.997C649.384 158.491 649.852 158.227 650.403 158.023C650.96 157.818 651.548 157.716 652.168 157.716C653.196 157.716 654.119 157.963 654.938 158.457C655.761 158.952 656.412 159.634 656.889 160.503C657.372 161.366 657.614 162.361 657.614 163.486C657.614 164.588 657.372 165.574 656.889 166.443C656.412 167.307 655.753 167.989 654.912 168.489C654.077 168.989 653.122 169.239 652.048 169.239ZM664.982 160.273C664.982 162.318 664.723 164.25 664.206 166.068C663.689 167.886 662.947 169.591 661.982 171.182H660.601C661.016 170.511 661.393 169.753 661.734 168.906C662.081 168.06 662.379 167.156 662.629 166.196C662.879 165.236 663.072 164.253 663.209 163.247C663.345 162.241 663.413 161.25 663.413 160.273C663.413 158.96 663.294 157.636 663.055 156.301C662.817 154.966 662.484 153.699 662.058 152.5C661.638 151.301 661.152 150.256 660.601 149.364H661.982C662.947 150.96 663.689 152.668 664.206 154.486C664.723 156.304 664.982 158.233 664.982 160.273ZM682.387 151.545V169H680.802V152.977H671.401V169H669.808V151.545H682.387ZM690.245 169.298C689.455 169.298 688.734 169.145 688.08 168.838C687.427 168.526 686.907 168.077 686.521 167.491C686.134 166.901 685.941 166.185 685.941 165.344C685.941 164.696 686.063 164.151 686.308 163.707C686.552 163.264 686.898 162.901 687.347 162.616C687.796 162.332 688.327 162.108 688.941 161.943C689.555 161.778 690.231 161.651 690.969 161.56C691.702 161.469 692.322 161.389 692.827 161.321C693.339 161.253 693.728 161.145 693.995 160.997C694.262 160.849 694.396 160.611 694.396 160.281V159.974C694.396 159.082 694.129 158.381 693.594 157.869C693.066 157.352 692.305 157.094 691.31 157.094C690.367 157.094 689.597 157.301 689.001 157.716C688.41 158.131 687.995 158.619 687.756 159.182L686.316 158.662C686.612 157.946 687.021 157.375 687.543 156.949C688.066 156.517 688.651 156.207 689.299 156.02C689.947 155.827 690.603 155.73 691.268 155.73C691.768 155.73 692.288 155.795 692.827 155.926C693.373 156.057 693.879 156.284 694.344 156.608C694.81 156.926 695.188 157.372 695.478 157.946C695.768 158.514 695.913 159.236 695.913 160.111V169H694.396V166.929H694.302C694.12 167.315 693.85 167.69 693.492 168.054C693.134 168.418 692.685 168.716 692.146 168.949C691.606 169.182 690.972 169.298 690.245 169.298ZM690.45 167.909C691.256 167.909 691.955 167.73 692.546 167.372C693.137 167.014 693.592 166.54 693.91 165.949C694.234 165.352 694.396 164.696 694.396 163.98V162.088C694.282 162.196 694.092 162.293 693.825 162.378C693.563 162.463 693.259 162.54 692.913 162.608C692.572 162.67 692.231 162.724 691.89 162.77C691.549 162.815 691.242 162.855 690.969 162.889C690.231 162.98 689.6 163.122 689.077 163.315C688.555 163.509 688.154 163.776 687.876 164.116C687.597 164.452 687.458 164.884 687.458 165.412C687.458 166.207 687.742 166.824 688.31 167.261C688.879 167.693 689.592 167.909 690.45 167.909ZM705.062 169.273C703.891 169.273 702.871 168.98 702.002 168.395C701.138 167.81 700.468 167.009 699.991 165.991C699.513 164.974 699.275 163.815 699.275 162.514C699.275 161.202 699.516 160.034 699.999 159.011C700.488 157.989 701.164 157.187 702.028 156.608C702.891 156.023 703.894 155.73 705.036 155.73C705.911 155.73 706.704 155.901 707.414 156.241C708.124 156.577 708.71 157.051 709.17 157.665C709.636 158.273 709.928 158.983 710.048 159.795H708.513C708.354 159.057 707.971 158.426 707.363 157.903C706.761 157.375 705.994 157.111 705.062 157.111C704.227 157.111 703.488 157.338 702.846 157.793C702.204 158.241 701.701 158.869 701.337 159.676C700.979 160.477 700.8 161.406 700.8 162.463C700.8 163.526 700.977 164.466 701.329 165.284C701.681 166.097 702.175 166.733 702.812 167.193C703.454 167.653 704.204 167.884 705.062 167.884C705.641 167.884 706.17 167.776 706.647 167.56C707.13 167.338 707.533 167.026 707.857 166.622C708.187 166.219 708.408 165.739 708.522 165.182H710.056C709.942 165.972 709.661 166.676 709.212 167.295C708.769 167.909 708.192 168.392 707.482 168.744C706.778 169.097 705.971 169.273 705.062 169.273ZM713.325 169V155.909H723.237V169H721.711V157.341H714.85V169H713.325ZM732.341 169.273C731.21 169.273 730.21 168.986 729.341 168.412C728.477 167.838 727.801 167.045 727.312 166.034C726.824 165.017 726.58 163.844 726.58 162.514C726.58 161.173 726.824 159.994 727.312 158.977C727.801 157.955 728.477 157.159 729.341 156.591C730.21 156.017 731.21 155.73 732.341 155.73C733.472 155.73 734.469 156.017 735.332 156.591C736.196 157.165 736.872 157.96 737.361 158.977C737.855 159.994 738.102 161.173 738.102 162.514C738.102 163.844 737.858 165.017 737.369 166.034C736.881 167.045 736.202 167.838 735.332 168.412C734.469 168.986 733.472 169.273 732.341 169.273ZM732.341 167.884C733.25 167.884 734.02 167.639 734.651 167.151C735.281 166.662 735.759 166.011 736.082 165.199C736.412 164.386 736.577 163.491 736.577 162.514C736.577 161.537 736.412 160.639 736.082 159.821C735.759 159.003 735.281 158.347 734.651 157.852C734.02 157.358 733.25 157.111 732.341 157.111C731.438 157.111 730.668 157.358 730.031 157.852C729.401 158.347 728.92 159.003 728.591 159.821C728.267 160.639 728.105 161.537 728.105 162.514C728.105 163.491 728.267 164.386 728.591 165.199C728.92 166.011 729.401 166.662 730.031 167.151C730.662 167.639 731.432 167.884 732.341 167.884ZM741.433 173.909V155.909H742.907V158.406H743.086C743.268 158.014 743.518 157.614 743.836 157.205C744.154 156.79 744.575 156.44 745.097 156.156C745.626 155.872 746.29 155.73 747.092 155.73C748.171 155.73 749.114 156.014 749.921 156.582C750.734 157.145 751.364 157.935 751.813 158.952C752.268 159.963 752.495 161.142 752.495 162.489C752.495 163.841 752.268 165.026 751.813 166.043C751.364 167.06 750.734 167.852 749.921 168.42C749.114 168.989 748.177 169.273 747.109 169.273C746.319 169.273 745.657 169.131 745.123 168.847C744.594 168.562 744.165 168.213 743.836 167.798C743.512 167.378 743.262 166.969 743.086 166.571H742.95V173.909H741.433ZM742.933 162.463C742.933 163.52 743.089 164.457 743.401 165.276C743.719 166.088 744.174 166.727 744.765 167.193C745.362 167.653 746.083 167.884 746.93 167.884C747.799 167.884 748.532 167.645 749.129 167.168C749.731 166.685 750.188 166.034 750.501 165.216C750.819 164.398 750.978 163.48 750.978 162.463C750.978 161.457 750.822 160.551 750.509 159.744C750.202 158.937 749.748 158.298 749.146 157.827C748.543 157.349 747.805 157.111 746.93 157.111C746.077 157.111 745.353 157.341 744.756 157.801C744.16 158.256 743.705 158.886 743.393 159.693C743.086 160.494 742.933 161.418 742.933 162.463ZM754.061 157.341V155.909H764.288V157.341H759.959V169H758.442V157.341H754.061ZM774.245 173.909V155.909H775.719V158.406H775.898C776.08 158.014 776.33 157.614 776.648 157.205C776.967 156.79 777.387 156.44 777.91 156.156C778.438 155.872 779.103 155.73 779.904 155.73C780.984 155.73 781.927 156.014 782.734 156.582C783.546 157.145 784.177 157.935 784.626 158.952C785.08 159.963 785.308 161.142 785.308 162.489C785.308 163.841 785.08 165.026 784.626 166.043C784.177 167.06 783.546 167.852 782.734 168.42C781.927 168.989 780.989 169.273 779.921 169.273C779.131 169.273 778.469 169.131 777.935 168.847C777.407 168.562 776.978 168.213 776.648 167.798C776.325 167.378 776.075 166.969 775.898 166.571H775.762V173.909H774.245ZM775.745 162.463C775.745 163.52 775.901 164.457 776.214 165.276C776.532 166.088 776.987 166.727 777.577 167.193C778.174 167.653 778.896 167.884 779.742 167.884C780.612 167.884 781.344 167.645 781.941 167.168C782.543 166.685 783.001 166.034 783.313 165.216C783.631 164.398 783.79 163.48 783.79 162.463C783.79 161.457 783.634 160.551 783.322 159.744C783.015 158.937 782.56 158.298 781.958 157.827C781.356 157.349 780.617 157.111 779.742 157.111C778.89 157.111 778.165 157.341 777.569 157.801C776.972 158.256 776.518 158.886 776.205 159.693C775.898 160.494 775.745 161.418 775.745 162.463ZM793.724 169.273C792.593 169.273 791.593 168.986 790.724 168.412C789.86 167.838 789.184 167.045 788.695 166.034C788.207 165.017 787.962 163.844 787.962 162.514C787.962 161.173 788.207 159.994 788.695 158.977C789.184 157.955 789.86 157.159 790.724 156.591C791.593 156.017 792.593 155.73 793.724 155.73C794.854 155.73 795.852 156.017 796.715 156.591C797.579 157.165 798.255 157.96 798.744 158.977C799.238 159.994 799.485 161.173 799.485 162.514C799.485 163.844 799.241 165.017 798.752 166.034C798.263 167.045 797.585 167.838 796.715 168.412C795.852 168.986 794.854 169.273 793.724 169.273ZM793.724 167.884C794.633 167.884 795.403 167.639 796.033 167.151C796.664 166.662 797.141 166.011 797.465 165.199C797.795 164.386 797.96 163.491 797.96 162.514C797.96 161.537 797.795 160.639 797.465 159.821C797.141 159.003 796.664 158.347 796.033 157.852C795.403 157.358 794.633 157.111 793.724 157.111C792.82 157.111 792.05 157.358 791.414 157.852C790.783 158.347 790.303 159.003 789.974 159.821C789.65 160.639 789.488 161.537 789.488 162.514C789.488 163.491 789.65 164.386 789.974 165.199C790.303 166.011 790.783 166.662 791.414 167.151C792.045 167.639 792.815 167.884 793.724 167.884ZM801.264 172.724V167.568H802.398C802.682 167.25 802.929 166.906 803.139 166.537C803.349 166.168 803.531 165.747 803.685 165.276C803.844 164.798 803.977 164.244 804.085 163.614C804.193 162.977 804.284 162.236 804.358 161.389L804.835 155.909H812.582V167.568H814.526V172.724H813.009V169H802.79V172.724H801.264ZM804.145 167.568H811.065V157.341H806.25L805.858 161.389C805.722 162.764 805.528 163.963 805.278 164.986C805.028 166.009 804.651 166.869 804.145 167.568ZM818.934 166.844L825.846 155.909H827.661V169H826.144V158.065L819.258 169H817.417V155.909H818.934V166.844ZM829.835 157.341V155.909H840.062V157.341H835.732V169H834.215V157.341H829.835ZM847.881 169.273C846.66 169.273 845.603 168.989 844.711 168.42C843.819 167.847 843.129 167.054 842.64 166.043C842.157 165.026 841.915 163.855 841.915 162.531C841.915 161.213 842.157 160.043 842.64 159.02C843.129 157.991 843.802 157.187 844.66 156.608C845.523 156.023 846.521 155.73 847.651 155.73C848.362 155.73 849.046 155.861 849.705 156.122C850.364 156.378 850.955 156.773 851.478 157.307C852.006 157.835 852.424 158.503 852.731 159.31C853.038 160.111 853.191 161.06 853.191 162.156V162.906H842.964V161.568H851.64C851.64 160.727 851.469 159.972 851.129 159.301C850.793 158.625 850.325 158.091 849.722 157.699C849.126 157.307 848.435 157.111 847.651 157.111C846.822 157.111 846.092 157.332 845.461 157.776C844.83 158.219 844.336 158.804 843.978 159.531C843.626 160.259 843.447 161.054 843.441 161.918V162.719C843.441 163.759 843.62 164.668 843.978 165.446C844.342 166.219 844.856 166.818 845.521 167.244C846.185 167.67 846.972 167.884 847.881 167.884C848.501 167.884 849.043 167.787 849.509 167.594C849.981 167.401 850.376 167.142 850.694 166.818C851.018 166.489 851.262 166.128 851.427 165.736L852.867 166.205C852.668 166.756 852.342 167.264 851.887 167.73C851.438 168.196 850.876 168.571 850.2 168.855C849.529 169.134 848.756 169.273 847.881 169.273ZM855.247 169V167.568H855.656C856.122 167.568 856.497 167.483 856.781 167.312C857.071 167.136 857.295 166.841 857.455 166.426C857.614 166.011 857.733 165.446 857.812 164.73C857.892 164.014 857.955 163.116 858 162.037L858.281 155.909H866.599V169H865.074V157.341H859.722L859.474 162.548C859.423 163.611 859.338 164.545 859.219 165.352C859.105 166.159 858.918 166.832 858.656 167.372C858.401 167.912 858.043 168.318 857.582 168.591C857.128 168.864 856.531 169 855.793 169H855.247ZM878.495 169V157.315H874.89C873.952 157.321 873.239 157.517 872.751 157.903C872.268 158.29 872.026 158.866 872.026 159.634C872.026 160.401 872.256 160.977 872.717 161.364C873.177 161.744 873.847 161.935 874.728 161.935H878.921V163.366H874.728C873.825 163.366 873.058 163.222 872.427 162.932C871.802 162.642 871.325 162.219 870.995 161.662C870.665 161.105 870.501 160.429 870.501 159.634C870.501 158.832 870.668 158.156 871.004 157.605C871.344 157.048 871.842 156.628 872.495 156.344C873.154 156.054 873.952 155.909 874.89 155.909H879.944V169H878.495ZM869.674 169L873.441 162.489H875.103L871.336 169H869.674ZM884.61 161.636C884.61 159.591 884.869 157.659 885.386 155.841C885.903 154.023 886.644 152.318 887.61 150.727H888.991C888.576 151.398 888.195 152.156 887.849 153.003C887.508 153.849 887.212 154.753 886.962 155.713C886.712 156.673 886.519 157.656 886.383 158.662C886.246 159.662 886.178 160.653 886.178 161.636C886.178 162.949 886.298 164.273 886.536 165.608C886.775 166.943 887.104 168.21 887.525 169.409C887.951 170.608 888.44 171.653 888.991 172.545H887.61C886.644 170.949 885.903 169.241 885.386 167.423C884.869 165.605 884.61 163.676 884.61 161.636ZM904.342 169.273C903.121 169.273 902.064 168.989 901.172 168.42C900.28 167.847 899.589 167.054 899.101 166.043C898.618 165.026 898.376 163.855 898.376 162.531C898.376 161.213 898.618 160.043 899.101 159.02C899.589 157.991 900.263 157.187 901.121 156.608C901.984 156.023 902.982 155.73 904.112 155.73C904.822 155.73 905.507 155.861 906.166 156.122C906.825 156.378 907.416 156.773 907.939 157.307C908.467 157.835 908.885 158.503 909.192 159.31C909.499 160.111 909.652 161.06 909.652 162.156V162.906H899.425V161.568H908.101C908.101 160.727 907.93 159.972 907.589 159.301C907.254 158.625 906.786 158.091 906.183 157.699C905.587 157.307 904.896 157.111 904.112 157.111C903.283 157.111 902.553 157.332 901.922 157.776C901.291 158.219 900.797 158.804 900.439 159.531C900.087 160.259 899.908 161.054 899.902 161.918V162.719C899.902 163.759 900.081 164.668 900.439 165.446C900.803 166.219 901.317 166.818 901.982 167.244C902.646 167.67 903.433 167.884 904.342 167.884C904.962 167.884 905.504 167.787 905.97 167.594C906.442 167.401 906.837 167.142 907.155 166.818C907.479 166.489 907.723 166.128 907.888 165.736L909.328 166.205C909.129 166.756 908.803 167.264 908.348 167.73C907.899 168.196 907.337 168.571 906.661 168.855C905.99 169.134 905.217 169.273 904.342 169.273ZM918.109 169.273C916.938 169.273 915.918 168.98 915.049 168.395C914.185 167.81 913.515 167.009 913.038 165.991C912.56 164.974 912.322 163.815 912.322 162.514C912.322 161.202 912.563 160.034 913.046 159.011C913.535 157.989 914.211 157.187 915.075 156.608C915.938 156.023 916.941 155.73 918.083 155.73C918.958 155.73 919.751 155.901 920.461 156.241C921.171 156.577 921.756 157.051 922.217 157.665C922.683 158.273 922.975 158.983 923.094 159.795H921.56C921.401 159.057 921.018 158.426 920.41 157.903C919.808 157.375 919.04 157.111 918.109 157.111C917.273 157.111 916.535 157.338 915.893 157.793C915.251 158.241 914.748 158.869 914.384 159.676C914.026 160.477 913.847 161.406 913.847 162.463C913.847 163.526 914.023 164.466 914.376 165.284C914.728 166.097 915.222 166.733 915.859 167.193C916.501 167.653 917.251 167.884 918.109 167.884C918.688 167.884 919.217 167.776 919.694 167.56C920.177 167.338 920.58 167.026 920.904 166.622C921.234 166.219 921.455 165.739 921.569 165.182H923.103C922.989 165.972 922.708 166.676 922.259 167.295C921.816 167.909 921.239 168.392 920.529 168.744C919.825 169.097 919.018 169.273 918.109 169.273ZM925.067 169V167.568H925.477C925.942 167.568 926.317 167.483 926.602 167.312C926.891 167.136 927.116 166.841 927.275 166.426C927.434 166.011 927.553 165.446 927.633 164.73C927.712 164.014 927.775 163.116 927.82 162.037L928.102 155.909H936.42V169H934.894V157.341H929.542L929.295 162.548C929.244 163.611 929.158 164.545 929.039 165.352C928.925 166.159 928.738 166.832 928.477 167.372C928.221 167.912 927.863 168.318 927.403 168.591C926.948 168.864 926.352 169 925.613 169H925.067ZM941.957 166.844L948.869 155.909H950.685V169H949.168V158.065L942.281 169H940.44V155.909H941.957V166.844ZM968.787 160.997V159.906L979.219 154.162V155.832L970.662 160.443L970.747 160.298V160.614L970.662 160.469L979.219 165.08V166.75L968.787 160.997ZM989.15 151.545V169H987.556V153.216H987.454L983.363 155.935V154.281L987.488 151.545H989.15ZM999.846 169.239C998.732 169.239 997.741 169.028 996.871 168.608C996.002 168.187 995.32 167.614 994.826 166.886C994.332 166.153 994.085 165.327 994.085 164.406C994.085 163.685 994.235 163.011 994.536 162.386C994.837 161.756 995.252 161.227 995.781 160.801C996.309 160.369 996.903 160.088 997.562 159.957V159.864C996.704 159.614 996.013 159.122 995.491 158.389C994.968 157.651 994.71 156.812 994.715 155.875C994.71 155.006 994.931 154.227 995.38 153.54C995.829 152.852 996.44 152.31 997.212 151.912C997.991 151.509 998.869 151.307 999.846 151.307C1000.82 151.307 1001.69 151.509 1002.46 151.912C1003.24 152.31 1003.85 152.852 1004.29 153.54C1004.75 154.227 1004.98 155.006 1004.99 155.875C1004.98 156.807 1004.72 157.645 1004.19 158.389C1003.67 159.128 1002.98 159.619 1002.13 159.864V159.957C1002.79 160.082 1003.38 160.361 1003.9 160.793C1004.43 161.224 1004.84 161.756 1005.15 162.386C1005.45 163.011 1005.61 163.685 1005.61 164.406C1005.61 165.327 1005.36 166.153 1004.86 166.886C1004.36 167.614 1003.68 168.187 1002.81 168.608C1001.95 169.028 1000.96 169.239 999.846 169.239ZM999.846 167.807C1000.68 167.807 1001.4 167.659 1002.03 167.364C1002.66 167.062 1003.15 166.651 1003.5 166.128C1003.86 165.605 1004.04 165.006 1004.04 164.33C1004.04 163.631 1003.85 163.009 1003.49 162.463C1003.12 161.912 1002.62 161.477 1001.99 161.159C1001.35 160.835 1000.64 160.673 999.846 160.673C999.05 160.673 998.335 160.835 997.698 161.159C997.067 161.477 996.567 161.912 996.198 162.463C995.835 163.009 995.653 163.631 995.653 164.33C995.653 165.006 995.826 165.605 996.173 166.128C996.525 166.651 997.016 167.062 997.647 167.364C998.283 167.659 999.016 167.807 999.846 167.807ZM999.846 159.31C1000.53 159.31 1001.14 159.165 1001.68 158.875C1002.22 158.585 1002.64 158.19 1002.96 157.69C1003.27 157.185 1003.44 156.611 1003.44 155.969C1003.44 155.332 1003.28 154.77 1002.97 154.281C1002.65 153.787 1002.23 153.403 1001.69 153.131C1001.15 152.852 1000.54 152.713 999.846 152.713C999.153 152.713 998.533 152.852 997.988 153.131C997.448 153.403 997.022 153.787 996.71 154.281C996.403 154.77 996.252 155.332 996.258 155.969C996.252 156.611 996.406 157.185 996.718 157.69C997.036 158.19 997.465 158.585 998.005 158.875C998.55 159.165 999.164 159.31 999.846 159.31ZM1012.89 160.273C1012.89 162.318 1012.63 164.25 1012.11 166.068C1011.6 167.886 1010.85 169.591 1009.89 171.182H1008.51C1008.92 170.511 1009.3 169.753 1009.64 168.906C1009.99 168.06 1010.29 167.156 1010.54 166.196C1010.79 165.236 1010.98 164.253 1011.12 163.247C1011.25 162.241 1011.32 161.25 1011.32 160.273C1011.32 158.96 1011.2 157.636 1010.96 156.301C1010.72 154.966 1010.39 153.699 1009.96 152.5C1009.54 151.301 1009.06 150.256 1008.51 149.364H1009.89C1010.85 150.96 1011.6 152.668 1012.11 154.486C1012.63 156.304 1012.89 158.233 1012.89 160.273ZM652.44 198.239C651.719 198.233 651.014 198.088 650.327 197.804C649.639 197.514 649.02 197.051 648.469 196.415C647.918 195.773 647.48 194.926 647.156 193.875C646.832 192.824 646.67 191.531 646.67 189.997C646.67 188.577 646.795 187.276 647.045 186.094C647.295 184.912 647.67 183.889 648.17 183.026C648.67 182.162 649.295 181.494 650.045 181.023C650.795 180.545 651.673 180.307 652.679 180.307C653.622 180.307 654.455 180.503 655.176 180.895C655.898 181.281 656.483 181.821 656.932 182.514C657.381 183.207 657.662 184.006 657.776 184.909H656.207C656.048 183.989 655.67 183.23 655.074 182.634C654.477 182.037 653.679 181.739 652.679 181.739C651.247 181.739 650.139 182.403 649.355 183.733C648.571 185.057 648.176 186.938 648.17 189.375H648.281C648.56 188.858 648.918 188.412 649.355 188.037C649.798 187.656 650.301 187.361 650.864 187.151C651.426 186.935 652.017 186.827 652.636 186.827C653.608 186.827 654.497 187.074 655.304 187.568C656.111 188.057 656.756 188.73 657.239 189.588C657.722 190.44 657.963 191.415 657.963 192.511C657.963 193.551 657.733 194.509 657.273 195.384C656.818 196.259 656.176 196.955 655.347 197.472C654.523 197.989 653.554 198.244 652.44 198.239ZM652.44 196.807C653.202 196.807 653.881 196.614 654.477 196.227C655.08 195.841 655.554 195.324 655.901 194.676C656.247 194.023 656.42 193.301 656.42 192.511C656.42 191.722 656.247 191.006 655.901 190.364C655.554 189.722 655.08 189.21 654.477 188.83C653.881 188.449 653.202 188.259 652.44 188.259C651.861 188.259 651.321 188.378 650.821 188.616C650.321 188.849 649.886 189.17 649.517 189.58C649.153 189.983 648.875 190.446 648.682 190.969C648.494 191.491 648.423 192.04 648.469 192.614C648.531 193.415 648.739 194.134 649.091 194.77C649.449 195.401 649.915 195.898 650.489 196.261C651.068 196.625 651.719 196.807 652.44 196.807ZM665.31 189.273C665.31 191.318 665.051 193.25 664.534 195.068C664.017 196.886 663.276 198.591 662.31 200.182H660.929C661.344 199.511 661.722 198.753 662.062 197.906C662.409 197.06 662.707 196.156 662.957 195.196C663.207 194.236 663.401 193.253 663.537 192.247C663.673 191.241 663.741 190.25 663.741 189.273C663.741 187.96 663.622 186.636 663.384 185.301C663.145 183.966 662.813 182.699 662.386 181.5C661.966 180.301 661.48 179.256 660.929 178.364H662.31C663.276 179.96 664.017 181.668 664.534 183.486C665.051 185.304 665.31 187.233 665.31 189.273ZM675.556 198.239C674.482 198.239 673.522 198.045 672.675 197.659C671.829 197.267 671.158 196.724 670.664 196.031C670.17 195.338 669.908 194.54 669.88 193.636H671.491C671.519 194.273 671.715 194.83 672.079 195.307C672.442 195.778 672.925 196.148 673.528 196.415C674.13 196.676 674.8 196.807 675.539 196.807C676.346 196.807 677.056 196.656 677.67 196.355C678.289 196.054 678.772 195.642 679.119 195.119C679.471 194.591 679.647 193.994 679.647 193.33C679.647 192.625 679.468 192.003 679.11 191.463C678.752 190.923 678.238 190.503 677.567 190.202C676.903 189.901 676.107 189.75 675.181 189.75H674.158V188.318H675.181C675.937 188.318 676.604 188.182 677.184 187.909C677.769 187.631 678.229 187.241 678.565 186.741C678.9 186.241 679.067 185.653 679.067 184.977C679.067 184.335 678.923 183.77 678.633 183.281C678.343 182.793 677.934 182.409 677.406 182.131C676.883 181.852 676.272 181.713 675.573 181.713C674.897 181.713 674.278 181.844 673.715 182.105C673.153 182.366 672.698 182.736 672.352 183.213C672.011 183.69 671.829 184.256 671.806 184.909H670.263C670.286 184 670.536 183.202 671.013 182.514C671.496 181.821 672.136 181.281 672.931 180.895C673.732 180.503 674.619 180.307 675.59 180.307C676.619 180.307 677.508 180.517 678.258 180.938C679.008 181.358 679.587 181.918 679.996 182.616C680.411 183.31 680.619 184.074 680.619 184.909C680.619 185.903 680.349 186.756 679.809 187.466C679.269 188.17 678.542 188.659 677.627 188.932V189.043C678.741 189.264 679.616 189.759 680.252 190.526C680.894 191.287 681.215 192.222 681.215 193.33C681.215 194.261 680.971 195.099 680.482 195.844C679.994 196.582 679.323 197.168 678.471 197.599C677.624 198.026 676.653 198.239 675.556 198.239ZM688.698 198.298C687.908 198.298 687.187 198.145 686.533 197.838C685.88 197.526 685.36 197.077 684.974 196.491C684.587 195.901 684.394 195.185 684.394 194.344C684.394 193.696 684.516 193.151 684.761 192.707C685.005 192.264 685.352 191.901 685.8 191.616C686.249 191.332 686.781 191.108 687.394 190.943C688.008 190.778 688.684 190.651 689.423 190.56C690.156 190.469 690.775 190.389 691.281 190.321C691.792 190.253 692.181 190.145 692.448 189.997C692.715 189.849 692.849 189.611 692.849 189.281V188.974C692.849 188.082 692.582 187.381 692.048 186.869C691.519 186.352 690.758 186.094 689.763 186.094C688.82 186.094 688.05 186.301 687.454 186.716C686.863 187.131 686.448 187.619 686.21 188.182L684.769 187.662C685.065 186.946 685.474 186.375 685.996 185.949C686.519 185.517 687.104 185.207 687.752 185.02C688.4 184.827 689.056 184.73 689.721 184.73C690.221 184.73 690.741 184.795 691.281 184.926C691.826 185.057 692.332 185.284 692.798 185.608C693.263 185.926 693.641 186.372 693.931 186.946C694.221 187.514 694.366 188.236 694.366 189.111V198H692.849V195.929H692.755C692.573 196.315 692.303 196.69 691.945 197.054C691.587 197.418 691.138 197.716 690.599 197.949C690.059 198.182 689.425 198.298 688.698 198.298ZM688.903 196.909C689.71 196.909 690.408 196.73 690.999 196.372C691.59 196.014 692.045 195.54 692.363 194.949C692.687 194.352 692.849 193.696 692.849 192.98V191.088C692.735 191.196 692.545 191.293 692.278 191.378C692.016 191.463 691.712 191.54 691.366 191.608C691.025 191.67 690.684 191.724 690.343 191.77C690.002 191.815 689.695 191.855 689.423 191.889C688.684 191.98 688.053 192.122 687.531 192.315C687.008 192.509 686.607 192.776 686.329 193.116C686.05 193.452 685.911 193.884 685.911 194.412C685.911 195.207 686.195 195.824 686.763 196.261C687.332 196.693 688.045 196.909 688.903 196.909ZM706.276 198V186.315H702.671C701.734 186.321 701.021 186.517 700.532 186.903C700.049 187.29 699.808 187.866 699.808 188.634C699.808 189.401 700.038 189.977 700.498 190.364C700.958 190.744 701.629 190.935 702.509 190.935H706.702V192.366H702.509C701.606 192.366 700.839 192.222 700.208 191.932C699.583 191.642 699.106 191.219 698.776 190.662C698.447 190.105 698.282 189.429 698.282 188.634C698.282 187.832 698.45 187.156 698.785 186.605C699.126 186.048 699.623 185.628 700.276 185.344C700.935 185.054 701.734 184.909 702.671 184.909H707.725V198H706.276ZM697.455 198L701.222 191.489H702.884L699.117 198H697.455ZM711.761 198V184.909H716.917C718.309 184.909 719.406 185.21 720.207 185.812C721.013 186.415 721.417 187.227 721.417 188.25C721.417 189.028 721.192 189.651 720.744 190.116C720.295 190.582 719.692 190.912 718.937 191.105C719.442 191.19 719.911 191.375 720.343 191.659C720.781 191.943 721.136 192.318 721.408 192.784C721.681 193.25 721.817 193.807 721.817 194.455C721.817 195.136 721.647 195.744 721.306 196.278C720.965 196.812 720.485 197.233 719.866 197.54C719.246 197.847 718.513 198 717.667 198H711.761ZM713.21 196.594H717.667C718.468 196.594 719.102 196.389 719.567 195.98C720.033 195.565 720.266 195.014 720.266 194.327C720.266 193.594 720.045 193.009 719.602 192.571C719.164 192.128 718.576 191.906 717.837 191.906H713.21V196.594ZM713.21 190.56H717.011C717.602 190.56 718.113 190.469 718.545 190.287C718.977 190.105 719.309 189.849 719.542 189.52C719.781 189.185 719.897 188.793 719.891 188.344C719.891 187.702 719.63 187.205 719.107 186.852C718.585 186.494 717.854 186.315 716.917 186.315H713.21V190.56ZM723.857 198V196.568H724.266C724.732 196.568 725.107 196.483 725.391 196.312C725.68 196.136 725.905 195.841 726.064 195.426C726.223 195.011 726.342 194.446 726.422 193.73C726.501 193.014 726.564 192.116 726.609 191.037L726.891 184.909H735.209V198H733.683V186.341H728.331L728.084 191.548C728.033 192.611 727.947 193.545 727.828 194.352C727.714 195.159 727.527 195.832 727.266 196.372C727.01 196.912 726.652 197.318 726.192 197.591C725.737 197.864 725.141 198 724.402 198H723.857ZM744.522 198.273C743.3 198.273 742.244 197.989 741.352 197.42C740.46 196.847 739.769 196.054 739.281 195.043C738.798 194.026 738.556 192.855 738.556 191.531C738.556 190.213 738.798 189.043 739.281 188.02C739.769 186.991 740.442 186.187 741.3 185.608C742.164 185.023 743.161 184.73 744.292 184.73C745.002 184.73 745.687 184.861 746.346 185.122C747.005 185.378 747.596 185.773 748.119 186.307C748.647 186.835 749.065 187.503 749.371 188.31C749.678 189.111 749.832 190.06 749.832 191.156V191.906H739.604V190.568H748.281C748.281 189.727 748.11 188.972 747.769 188.301C747.434 187.625 746.965 187.091 746.363 186.699C745.766 186.307 745.076 186.111 744.292 186.111C743.462 186.111 742.732 186.332 742.102 186.776C741.471 187.219 740.977 187.804 740.619 188.531C740.266 189.259 740.087 190.054 740.082 190.918V191.719C740.082 192.759 740.261 193.668 740.619 194.446C740.982 195.219 741.496 195.818 742.161 196.244C742.826 196.67 743.613 196.884 744.522 196.884C745.141 196.884 745.684 196.787 746.15 196.594C746.621 196.401 747.016 196.142 747.335 195.818C747.658 195.489 747.903 195.128 748.067 194.736L749.508 195.205C749.309 195.756 748.982 196.264 748.528 196.73C748.079 197.196 747.516 197.571 746.84 197.855C746.17 198.134 745.397 198.273 744.522 198.273ZM762.013 190.747V192.179H754.317V190.747H762.013ZM754.692 184.909V198H753.175V184.909H754.692ZM763.129 184.909V198H761.612V184.909H763.129ZM768.684 195.844L775.596 184.909H777.411V198H775.894V187.065L769.008 198H767.167V184.909H768.684V195.844ZM786.71 198.273C785.488 198.273 784.431 197.989 783.539 197.42C782.647 196.847 781.957 196.054 781.468 195.043C780.985 194.026 780.744 192.855 780.744 191.531C780.744 190.213 780.985 189.043 781.468 188.02C781.957 186.991 782.63 186.187 783.488 185.608C784.352 185.023 785.349 184.73 786.479 184.73C787.19 184.73 787.874 184.861 788.533 185.122C789.192 185.378 789.783 185.773 790.306 186.307C790.835 186.835 791.252 187.503 791.559 188.31C791.866 189.111 792.019 190.06 792.019 191.156V191.906H781.792V190.568H790.468C790.468 189.727 790.298 188.972 789.957 188.301C789.621 187.625 789.153 187.091 788.55 186.699C787.954 186.307 787.263 186.111 786.479 186.111C785.65 186.111 784.92 186.332 784.289 186.776C783.658 187.219 783.164 187.804 782.806 188.531C782.454 189.259 782.275 190.054 782.269 190.918V191.719C782.269 192.759 782.448 193.668 782.806 194.446C783.17 195.219 783.684 195.818 784.349 196.244C785.013 196.67 785.8 196.884 786.71 196.884C787.329 196.884 787.871 196.787 788.337 196.594C788.809 196.401 789.204 196.142 789.522 195.818C789.846 195.489 790.09 195.128 790.255 194.736L791.695 195.205C791.496 195.756 791.17 196.264 790.715 196.73C790.266 197.196 789.704 197.571 789.028 197.855C788.357 198.134 787.585 198.273 786.71 198.273ZM810.95 190.747V192.179H803.254V190.747H810.95ZM803.629 184.909V198H802.112V184.909H803.629ZM812.067 184.909V198H810.55V184.909H812.067ZM819.761 198.298C818.971 198.298 818.249 198.145 817.596 197.838C816.942 197.526 816.423 197.077 816.036 196.491C815.65 195.901 815.457 195.185 815.457 194.344C815.457 193.696 815.579 193.151 815.823 192.707C816.067 192.264 816.414 191.901 816.863 191.616C817.312 191.332 817.843 191.108 818.457 190.943C819.07 190.778 819.746 190.651 820.485 190.56C821.218 190.469 821.837 190.389 822.343 190.321C822.854 190.253 823.244 190.145 823.511 189.997C823.778 189.849 823.911 189.611 823.911 189.281V188.974C823.911 188.082 823.644 187.381 823.11 186.869C822.582 186.352 821.82 186.094 820.826 186.094C819.883 186.094 819.113 186.301 818.516 186.716C817.925 187.131 817.511 187.619 817.272 188.182L815.832 187.662C816.127 186.946 816.536 186.375 817.059 185.949C817.582 185.517 818.167 185.207 818.815 185.02C819.462 184.827 820.119 184.73 820.783 184.73C821.283 184.73 821.803 184.795 822.343 184.926C822.888 185.057 823.394 185.284 823.86 185.608C824.326 185.926 824.704 186.372 824.994 186.946C825.283 187.514 825.428 188.236 825.428 189.111V198H823.911V195.929H823.817C823.636 196.315 823.366 196.69 823.008 197.054C822.65 197.418 822.201 197.716 821.661 197.949C821.121 198.182 820.488 198.298 819.761 198.298ZM819.965 196.909C820.772 196.909 821.471 196.73 822.062 196.372C822.653 196.014 823.107 195.54 823.425 194.949C823.749 194.352 823.911 193.696 823.911 192.98V191.088C823.798 191.196 823.607 191.293 823.34 191.378C823.079 191.463 822.775 191.54 822.428 191.608C822.087 191.67 821.746 191.724 821.406 191.77C821.065 191.815 820.758 191.855 820.485 191.889C819.746 191.98 819.116 192.122 818.593 192.315C818.07 192.509 817.67 192.776 817.391 193.116C817.113 193.452 816.974 193.884 816.974 194.412C816.974 195.207 817.258 195.824 817.826 196.261C818.394 196.693 819.107 196.909 819.965 196.909ZM836.231 198V184.909H846.143V198H844.617V186.341H837.756V198H836.231ZM855.247 198.273C854.116 198.273 853.116 197.986 852.247 197.412C851.384 196.838 850.707 196.045 850.219 195.034C849.73 194.017 849.486 192.844 849.486 191.514C849.486 190.173 849.73 188.994 850.219 187.977C850.707 186.955 851.384 186.159 852.247 185.591C853.116 185.017 854.116 184.73 855.247 184.73C856.378 184.73 857.375 185.017 858.239 185.591C859.102 186.165 859.778 186.96 860.267 187.977C860.761 188.994 861.009 190.173 861.009 191.514C861.009 192.844 860.764 194.017 860.276 195.034C859.787 196.045 859.108 196.838 858.239 197.412C857.375 197.986 856.378 198.273 855.247 198.273ZM855.247 196.884C856.156 196.884 856.926 196.639 857.557 196.151C858.188 195.662 858.665 195.011 858.989 194.199C859.318 193.386 859.483 192.491 859.483 191.514C859.483 190.537 859.318 189.639 858.989 188.821C858.665 188.003 858.188 187.347 857.557 186.852C856.926 186.358 856.156 186.111 855.247 186.111C854.344 186.111 853.574 186.358 852.938 186.852C852.307 187.347 851.827 188.003 851.497 188.821C851.173 189.639 851.011 190.537 851.011 191.514C851.011 192.491 851.173 193.386 851.497 194.199C851.827 195.011 852.307 195.662 852.938 196.151C853.568 196.639 854.338 196.884 855.247 196.884ZM869.452 198.273C868.282 198.273 867.262 197.98 866.393 197.395C865.529 196.81 864.859 196.009 864.381 194.991C863.904 193.974 863.665 192.815 863.665 191.514C863.665 190.202 863.907 189.034 864.39 188.011C864.879 186.989 865.555 186.187 866.418 185.608C867.282 185.023 868.285 184.73 869.427 184.73C870.302 184.73 871.094 184.901 871.805 185.241C872.515 185.577 873.1 186.051 873.56 186.665C874.026 187.273 874.319 187.983 874.438 188.795H872.904C872.745 188.057 872.362 187.426 871.754 186.903C871.151 186.375 870.384 186.111 869.452 186.111C868.617 186.111 867.879 186.338 867.237 186.793C866.594 187.241 866.092 187.869 865.728 188.676C865.37 189.477 865.191 190.406 865.191 191.463C865.191 192.526 865.367 193.466 865.719 194.284C866.072 195.097 866.566 195.733 867.202 196.193C867.844 196.653 868.594 196.884 869.452 196.884C870.032 196.884 870.56 196.776 871.038 196.56C871.521 196.338 871.924 196.026 872.248 195.622C872.577 195.219 872.799 194.739 872.913 194.182H874.447C874.333 194.972 874.052 195.676 873.603 196.295C873.16 196.909 872.583 197.392 871.873 197.744C871.168 198.097 870.362 198.273 869.452 198.273ZM876.616 186.341V184.909H886.843V186.341H882.513V198H880.996V186.341H876.616ZM891.107 202.909C890.805 202.909 890.524 202.881 890.263 202.824C890.001 202.767 889.794 202.705 889.641 202.636L890.05 201.298C890.567 201.457 891.027 201.514 891.43 201.469C891.834 201.429 892.192 201.247 892.504 200.923C892.817 200.605 893.095 200.116 893.339 199.457L893.817 198.128L889.001 184.909H890.646L894.533 195.997H894.652L898.538 184.909H900.183L894.643 200.071C894.411 200.702 894.124 201.227 893.783 201.648C893.442 202.074 893.047 202.389 892.598 202.594C892.155 202.804 891.658 202.909 891.107 202.909ZM903.168 198V184.909H913.08V198H911.555V186.341H904.694V198H903.168ZM915.81 198V196.568H916.219C916.685 196.568 917.06 196.483 917.344 196.312C917.634 196.136 917.858 195.841 918.017 195.426C918.176 195.011 918.295 194.446 918.375 193.73C918.455 193.014 918.517 192.116 918.562 191.037L918.844 184.909H927.162V198H925.636V186.341H920.284L920.037 191.548C919.986 192.611 919.901 193.545 919.781 194.352C919.668 195.159 919.48 195.832 919.219 196.372C918.963 196.912 918.605 197.318 918.145 197.591C917.69 197.864 917.094 198 916.355 198H915.81ZM936.475 198.273C935.254 198.273 934.197 197.989 933.305 197.42C932.413 196.847 931.722 196.054 931.234 195.043C930.751 194.026 930.509 192.855 930.509 191.531C930.509 190.213 930.751 189.043 931.234 188.02C931.722 186.991 932.396 186.187 933.254 185.608C934.117 185.023 935.114 184.73 936.245 184.73C936.955 184.73 937.64 184.861 938.299 185.122C938.958 185.378 939.549 185.773 940.072 186.307C940.6 186.835 941.018 187.503 941.325 188.31C941.631 189.111 941.785 190.06 941.785 191.156V191.906H931.558V190.568H940.234C940.234 189.727 940.063 188.972 939.722 188.301C939.387 187.625 938.918 187.091 938.316 186.699C937.719 186.307 937.029 186.111 936.245 186.111C935.415 186.111 934.685 186.332 934.055 186.776C933.424 187.219 932.93 187.804 932.572 188.531C932.219 189.259 932.04 190.054 932.035 190.918V191.719C932.035 192.759 932.214 193.668 932.572 194.446C932.935 195.219 933.45 195.818 934.114 196.244C934.779 196.67 935.566 196.884 936.475 196.884C937.094 196.884 937.637 196.787 938.103 196.594C938.575 196.401 938.969 196.142 939.288 195.818C939.612 195.489 939.856 195.128 940.021 194.736L941.461 195.205C941.262 195.756 940.935 196.264 940.481 196.73C940.032 197.196 939.469 197.571 938.793 197.855C938.123 198.134 937.35 198.273 936.475 198.273ZM953.966 190.747V192.179H946.27V190.747H953.966ZM946.645 184.909V198H945.128V184.909H946.645ZM955.082 184.909V198H953.565V184.909H955.082ZM960.637 195.844L967.549 184.909H969.364V198H967.847V187.065L960.961 198H959.12V184.909H960.637V195.844ZM978.663 198.273C977.441 198.273 976.384 197.989 975.492 197.42C974.6 196.847 973.91 196.054 973.421 195.043C972.938 194.026 972.697 192.855 972.697 191.531C972.697 190.213 972.938 189.043 973.421 188.02C973.91 186.991 974.583 186.187 975.441 185.608C976.305 185.023 977.302 184.73 978.433 184.73C979.143 184.73 979.827 184.861 980.487 185.122C981.146 185.378 981.737 185.773 982.259 186.307C982.788 186.835 983.205 187.503 983.512 188.31C983.819 189.111 983.972 190.06 983.972 191.156V191.906H973.745V190.568H982.421C982.421 189.727 982.251 188.972 981.91 188.301C981.575 187.625 981.106 187.091 980.504 186.699C979.907 186.307 979.217 186.111 978.433 186.111C977.603 186.111 976.873 186.332 976.242 186.776C975.612 187.219 975.117 187.804 974.759 188.531C974.407 189.259 974.228 190.054 974.222 190.918V191.719C974.222 192.759 974.401 193.668 974.759 194.446C975.123 195.219 975.637 195.818 976.302 196.244C976.967 196.67 977.754 196.884 978.663 196.884C979.282 196.884 979.825 196.787 980.29 196.594C980.762 196.401 981.157 196.142 981.475 195.818C981.799 195.489 982.043 195.128 982.208 194.736L983.648 195.205C983.45 195.756 983.123 196.264 982.668 196.73C982.219 197.196 981.657 197.571 980.981 197.855C980.31 198.134 979.538 198.273 978.663 198.273Z" fill="black"/>
</svg>
